;PTH Drill file created by EasyEDA 
M48
;Holesize 1 = 0.035 INCH
T01C0.035
;Holesize 2 = 0.032 INCH
T02C0.032
;Holesize 3 = 0.040 INCH
T03C0.040
;Holesize 4 = 0.035 INCH
T04C0.035
;Holesize 5 = 0.035 INCH
T05C0.035
;Holesize 6 = 0.118 INCH
T06C0.118
;Holesize 7 = 0.012 INCH
T07C0.012
INCH,00.0000
%
G05
G90
T01
X013000Y015300
X012211Y015300
T02
X009000Y014200
X019400Y008500
X003100Y004500
X018800Y017800
X014100Y006100
X014100Y007100
X014100Y008100
X014100Y009100
X022400Y011500
X022400Y010500
X022400Y002900
X022400Y001900
T03
X012100Y017100
X013100Y017100
X012700Y001200
X012700Y002200
X012700Y003200
X016800Y001200
X016800Y002200
X016800Y003200
X018300Y001200
X018300Y002200
X018300Y003200
X011200Y001200
X011200Y002200
X011200Y003200
X009700Y001200
X009700Y002200
X009700Y003200
X027000Y012500
X027000Y013500
X027000Y014500
X027000Y015500
X027000Y003900
X027000Y004900
X027000Y005900
X027000Y006900
X002200Y009900
X002200Y008900
X002200Y007900
X002200Y006900
X027000Y009200
X027000Y010200
X015300Y001200
X015300Y002200
X015300Y003200
X002200Y014900
X002200Y013900
X002200Y012900
X002200Y011900
T04
X016700Y014900
X016700Y017900
X014700Y014900
X014700Y017900
X015700Y017900
X015700Y014900
T05
X005800Y001419
X005800Y003980
X004100Y016900
X004100Y015900
X004100Y014900
X004100Y013900
X004100Y012900
X004100Y011900
X004100Y010900
X004100Y009900
X004100Y008900
X004100Y007900
X004100Y006900
X004100Y005900
X010100Y005900
X010100Y006900
X010100Y007900
X010100Y008900
X010100Y009900
X010100Y010900
X010100Y011900
X010100Y012900
X010100Y013900
X010100Y014900
X010100Y015900
X010100Y016900
X025250Y015500
X025250Y016500
X025250Y017500
X025250Y014500
X025250Y013500
X025250Y012500
X025250Y011500
X025250Y010500
X020250Y010500
X020250Y011500
X020250Y012500
X020250Y013500
X020250Y014500
X020250Y015500
X020250Y016500
X020250Y017500
X025250Y006900
X025250Y007900
X025250Y008900
X025250Y005900
X025250Y004900
X025250Y003900
X025250Y002900
X025250Y001900
X020250Y001900
X020250Y002900
X020250Y003900
X020250Y004900
X020250Y005900
X020250Y006900
X020250Y007900
X020250Y008900
X012600Y013100
X012600Y012100
X012600Y011100
X012600Y010100
X012600Y009100
X012600Y008100
X012600Y007100
X012600Y006100
X018800Y016400
X017800Y016400
T06
X017100Y012600
X017100Y006600
X001575Y018025
X027952Y018025
X027952Y001490
X001575Y001490
T07
X007851Y015942
X011197Y016094
X011519Y014203
X020378Y000219
X020276Y009755
X004061Y003601
X018952Y011500
X006386Y010980
X018818Y000559
X019359Y010725
X013738Y018240
X008294Y018394
X013315Y014751
X009009Y011900
X009167Y016676
X007944Y015390
X008594Y010900
M30
