G04 ---------------------------- Layer name :TOP SOLDER LAYER*
G04 easyEDA 0.1*
G04 Scale: 100 percent, Rotated: No, Reflected: No *
G04 Dimensions in inches *
G04 leading zeros omitted , absolute positions ,2 integer and 4 * 
%FSLAX24Y24*%
%MOIN*%
G90*
G70D02*

%ADD11C,0.088000*%
%ADD13C,0.073000*%
%ADD15C,0.078000*%
%ADD17R,0.088000X0.088000*%
%ADD19R,0.033000X0.058000*%
%ADD20C,0.165480*%
%ADD22R,0.064000X0.053000*%
%ADD23C,0.244220*%

%LPD*%
G54D11*
G01X12600Y12100D02*
G01X12600Y12100D01*
G01X12600Y11100D02*
G01X12600Y11100D01*
G01X12600Y10100D02*
G01X12600Y10100D01*
G01X12600Y9100D02*
G01X12600Y9100D01*
G01X12600Y8100D02*
G01X12600Y8100D01*
G01X12600Y7100D02*
G01X12600Y7100D01*
G01X12600Y6100D02*
G01X12600Y6100D01*
G54D13*
G01X13000Y15300D03*
G01X12211Y15300D03*
G54D15*
G01X9000Y14200D03*
G01X19400Y8500D03*
G01X3100Y4500D03*
G01X18800Y17800D03*
G01X14100Y6100D03*
G01X14100Y7100D03*
G01X14100Y8100D03*
G01X14100Y9100D03*
G01X22400Y11500D03*
G01X22400Y10500D03*
G01X22400Y2900D03*
G01X22400Y1900D03*
G54D17*
G01X12100Y17100D03*
G54D11*
G01X13100Y17100D03*
G54D17*
G01X12700Y1200D03*
G54D11*
G01X12700Y2200D03*
G01X12700Y3200D03*
G54D17*
G01X16800Y1200D03*
G54D11*
G01X16800Y2200D03*
G01X16800Y3200D03*
G54D17*
G01X18300Y1200D03*
G54D11*
G01X18300Y2200D03*
G01X18300Y3200D03*
G54D19*
G01X22580Y16600D03*
G01X22219Y16600D03*
G01X22580Y15600D03*
G01X22219Y15600D03*
G01X22580Y14600D03*
G01X22219Y14600D03*
G01X22580Y8000D03*
G01X22219Y8000D03*
G01X22580Y7000D03*
G01X22219Y7000D03*
G01X22580Y6000D03*
G01X22219Y6000D03*
G54D11*
G01X16700Y14900D03*
G01X16700Y17900D03*
G01X5800Y1419D03*
G01X5800Y3980D03*
G01X14700Y14900D03*
G01X14700Y17900D03*
G01X15700Y17900D03*
G01X15700Y14900D03*
G54D17*
G01X11200Y1200D03*
G54D11*
G01X11200Y2200D03*
G01X11200Y3200D03*
G54D17*
G01X9700Y1200D03*
G54D11*
G01X9700Y2200D03*
G01X9700Y3200D03*
G01X4100Y16900D03*
G01X4100Y15900D03*
G01X4100Y14900D03*
G01X4100Y13900D03*
G01X4100Y12900D03*
G01X4100Y11900D03*
G01X4100Y10900D03*
G01X4100Y9900D03*
G01X4100Y8900D03*
G01X4100Y7900D03*
G01X4100Y6900D03*
G01X4100Y5900D03*
G01X10100Y5900D03*
G01X10100Y6900D03*
G01X10100Y7900D03*
G01X10100Y8900D03*
G01X10100Y9900D03*
G01X10100Y10900D03*
G01X10100Y11900D03*
G01X10100Y12900D03*
G01X10100Y13900D03*
G01X10100Y14900D03*
G01X10100Y15900D03*
G01X10100Y16900D03*
G54D17*
G01X27000Y12500D03*
G54D11*
G01X27000Y13500D03*
G01X27000Y14500D03*
G01X27000Y15500D03*
G54D17*
G01X27000Y3900D03*
G54D11*
G01X27000Y4900D03*
G01X27000Y5900D03*
G01X27000Y6900D03*
G54D17*
G01X2200Y9900D03*
G54D11*
G01X2200Y8900D03*
G01X2200Y7900D03*
G01X2200Y6900D03*
G01X25250Y15500D03*
G01X25250Y16500D03*
G01X25250Y17500D03*
G01X25250Y14500D03*
G01X25250Y13500D03*
G01X25250Y12500D03*
G01X25250Y11500D03*
G01X25250Y10500D03*
G01X20250Y10500D03*
G01X20250Y11500D03*
G01X20250Y12500D03*
G01X20250Y13500D03*
G01X20250Y14500D03*
G01X20250Y15500D03*
G01X20250Y16500D03*
G01X20250Y17500D03*
G01X25250Y6900D03*
G01X25250Y7900D03*
G01X25250Y8900D03*
G01X25250Y5900D03*
G01X25250Y4900D03*
G01X25250Y3900D03*
G01X25250Y2900D03*
G01X25250Y1900D03*
G01X20250Y1900D03*
G01X20250Y2900D03*
G01X20250Y3900D03*
G01X20250Y4900D03*
G01X20250Y5900D03*
G01X20250Y6900D03*
G01X20250Y7900D03*
G01X20250Y8900D03*
G54D17*
G01X12600Y13100D03*
G54D20*
G01X17100Y12600D03*
G01X17100Y6600D03*
G54D17*
G01X18800Y16400D03*
G54D11*
G01X17800Y16400D03*
G54D17*
G01X27000Y9200D03*
G54D11*
G01X27000Y10200D03*
G54D17*
G01X15300Y1200D03*
G54D11*
G01X15300Y2200D03*
G01X15300Y3200D03*
G54D17*
G01X2200Y14900D03*
G54D11*
G01X2200Y13900D03*
G01X2200Y12900D03*
G01X2200Y11900D03*
G54D22*
G01X8600Y15390D03*
G01X8600Y15900D03*
G01X8600Y16409D03*
G54D23*
G01X1575Y18025D03*
G01X27952Y18025D03*
G01X27952Y1490D03*
G01X1575Y1490D03*

M00*
M02*