G04 ---------------------------- Layer name :TOP SILK LAYER*
G04 easyEDA 0.1*
G04 Scale: 100 percent, Rotated: No, Reflected: No *
G04 Dimensions in inches *
G04 leading zeros omitted , absolute positions ,2 integer and 4 * 
%FSLAX24Y24*%
%MOIN*%
G90*
G70D02*

%ADD10C,0.010000*%
%ADD11C,0.005000*%
%ADD12C,0.012000*%
%ADD13C,0.008000*%
%ADD14C,0.006000*%

%LPD*%
G54D10*
G01X3600Y18400D02*
G01X10600Y18400D01*
G01X10600Y5400D01*
G01X3600Y5400D01*
G01X3600Y18400D01*
G01X5000Y18400D01*
G01X5700Y18700D02*
G01X5700Y17100D01*
G01X8600Y17100D01*
G01X8600Y18700D01*
G01X12209Y15680D02*
G01X12209Y15990D01*
G01X12369Y15830D02*
G01X12039Y15830D01*
G01X11600Y16600D02*
G01X11600Y17600D01*
G01X13600Y17600D01*
G01X13600Y16600D01*
G01X11600Y16600D01*
G01X13200Y700D02*
G01X12200Y700D01*
G01X12200Y3700D01*
G01X13200Y3700D01*
G01X13200Y700D01*
G01X17300Y700D02*
G01X16300Y700D01*
G01X16300Y3700D01*
G01X17300Y3700D01*
G01X17300Y700D01*
G01X18800Y700D02*
G01X17800Y700D01*
G01X17800Y3700D01*
G01X18800Y3700D01*
G01X18800Y700D01*
G01X22089Y16990D02*
G01X22710Y16990D01*
G01X22710Y16209D02*
G01X22089Y16209D01*
G01X22089Y15990D02*
G01X22710Y15990D01*
G01X22710Y15209D02*
G01X22089Y15209D01*
G01X22089Y14990D02*
G01X22710Y14990D01*
G01X22710Y14209D02*
G01X22089Y14209D01*
G01X22089Y8390D02*
G01X22710Y8390D01*
G01X22710Y7609D02*
G01X22089Y7609D01*
G01X22089Y7390D02*
G01X22710Y7390D01*
G01X22710Y6609D02*
G01X22089Y6609D01*
G01X22089Y6390D02*
G01X22710Y6390D01*
G01X22710Y5609D02*
G01X22089Y5609D01*
G01X16400Y15400D02*
G01X16400Y17400D01*
G01X16400Y17400D02*
G01X16700Y17400D01*
G01X16700Y17400D02*
G01X17000Y17400D01*
G01X17000Y17400D02*
G01X17000Y15400D01*
G01X17000Y15400D02*
G01X16700Y15400D01*
G01X16700Y15400D02*
G01X16400Y15400D01*
G01X16700Y17400D02*
G01X16700Y17500D01*
G01X16700Y15400D02*
G01X16700Y15300D01*
G01X14400Y15400D02*
G01X14400Y17400D01*
G01X14400Y17400D02*
G01X14700Y17400D01*
G01X14700Y17400D02*
G01X15000Y17400D01*
G01X15000Y17400D02*
G01X15000Y15400D01*
G01X15000Y15400D02*
G01X14700Y15400D01*
G01X14700Y15400D02*
G01X14400Y15400D01*
G01X14700Y17400D02*
G01X14700Y17500D01*
G01X14700Y15400D02*
G01X14700Y15300D01*
G01X16000Y17400D02*
G01X16000Y15400D01*
G01X16000Y15400D02*
G01X15700Y15400D01*
G01X15700Y15400D02*
G01X15400Y15400D01*
G01X15400Y15400D02*
G01X15400Y17400D01*
G01X15400Y17400D02*
G01X15700Y17400D01*
G01X15700Y17400D02*
G01X16000Y17400D01*
G01X15700Y15400D02*
G01X15700Y15300D01*
G01X15700Y17400D02*
G01X15700Y17500D01*
G01X11700Y700D02*
G01X10700Y700D01*
G01X10700Y3700D01*
G01X11700Y3700D01*
G01X11700Y700D01*
G01X10200Y700D02*
G01X9200Y700D01*
G01X9200Y3700D01*
G01X10200Y3700D01*
G01X10200Y700D01*
G01X5680Y19000D02*
G01X5550Y19230D01*
G01X8730Y19230D01*
G01X8600Y19000D01*
G01X5680Y19000D01*
G01X8590Y18750D02*
G01X5690Y18750D01*
G01X8440Y17030D02*
G01X8600Y17030D01*
G01X8600Y17640D01*
G01X5880Y17030D02*
G01X5680Y17030D01*
G01X5680Y17680D01*
G01X8600Y18619D02*
G01X8600Y18980D01*
G01X5680Y18619D02*
G01X5680Y18980D01*
G01X7100Y8800D02*
G01X5100Y10800D01*
G01X7100Y12800D01*
G01X9100Y10800D01*
G01X7100Y8800D01*
G01X27500Y12000D02*
G01X26500Y12000D01*
G01X26500Y16000D01*
G01X27500Y16000D01*
G01X27500Y12000D01*
G01X27500Y3400D02*
G01X26500Y3400D01*
G01X26500Y7400D01*
G01X27500Y7400D01*
G01X27500Y3400D01*
G01X1700Y10400D02*
G01X2700Y10400D01*
G01X2700Y6400D01*
G01X1700Y6400D01*
G01X1700Y10400D01*
G54D11*
G01X25750Y10000D02*
G01X19750Y10000D01*
G01X19750Y18000D01*
G01X25750Y18000D01*
G01X25750Y10000D01*
G01X25750Y1400D02*
G01X19750Y1400D01*
G01X19750Y9400D01*
G01X25750Y9400D01*
G01X25750Y1400D01*
G54D10*
G01X11900Y13800D02*
G01X18300Y13800D01*
G01X18300Y5400D01*
G01X11900Y5400D01*
G01X11900Y13800D01*
G01X18610Y16790D02*
G01X18610Y16990D01*
G01X18610Y17190D01*
G01X18300Y16790D02*
G01X18300Y16990D01*
G01X18300Y17190D01*
G01X18300Y16990D02*
G01X17910Y16990D01*
G01X19010Y16990D02*
G01X18610Y16990D01*
G01X18380Y16680D02*
G01X18180Y16480D01*
G01X18380Y16480D01*
G01X18180Y16680D01*
G01X18180Y16480D01*
G01X17550Y15650D02*
G01X17550Y16119D01*
G01X17550Y17150D02*
G01X17550Y16750D01*
G01X27500Y8700D02*
G01X26500Y8700D01*
G01X26500Y10700D01*
G01X27500Y10700D01*
G01X27500Y8700D01*
G01X15800Y700D02*
G01X14800Y700D01*
G01X14800Y3700D01*
G01X15800Y3700D01*
G01X15800Y700D01*
G01X1700Y15400D02*
G01X2700Y15400D01*
G01X2700Y11400D01*
G01X1700Y11400D01*
G01X1700Y15400D01*
G54D12*
G01X8209Y15069D02*
G01X8990Y15069D01*
G01X8990Y15069D02*
G01X8990Y15640D01*
G01X8990Y15640D02*
G01X8990Y16159D01*
G01X8990Y16159D02*
G01X8990Y16730D01*
G01X8990Y16730D02*
G01X8209Y16730D01*
G01X8209Y16730D02*
G01X8209Y16159D01*
G01X8209Y16159D02*
G01X8209Y15640D01*
G01X8209Y15640D02*
G01X8209Y15069D01*
G01X8990Y15640D02*
G01X8900Y15640D01*
G01X8209Y15640D02*
G01X8300Y15640D01*
G01X8209Y16159D02*
G01X8300Y16159D01*
G01X8990Y16159D02*
G01X8900Y16159D01*
G54D13*
G01X28400Y8217D02*
G01X28734Y8217D01*
G01X28400Y8217D02*
G01X28734Y8344D01*
G01X28400Y8472D02*
G01X28734Y8344D01*
G01X28400Y8472D02*
G01X28734Y8472D01*
G01X28511Y8656D02*
G01X28527Y8624D01*
G01X28559Y8592D01*
G01X28607Y8577D01*
G01X28639Y8577D01*
G01X28686Y8592D01*
G01X28718Y8624D01*
G01X28734Y8656D01*
G01X28734Y8704D01*
G01X28718Y8736D01*
G01X28686Y8767D01*
G01X28639Y8783D01*
G01X28607Y8783D01*
G01X28559Y8767D01*
G01X28527Y8736D01*
G01X28511Y8704D01*
G01X28511Y8656D01*
G01X28400Y8936D02*
G01X28671Y8936D01*
G01X28718Y8952D01*
G01X28734Y8984D01*
G01X28734Y9016D01*
G01X28511Y8888D02*
G01X28511Y9000D01*
G01X28511Y9200D02*
G01X28527Y9168D01*
G01X28559Y9137D01*
G01X28607Y9121D01*
G01X28639Y9121D01*
G01X28686Y9137D01*
G01X28718Y9168D01*
G01X28734Y9200D01*
G01X28734Y9248D01*
G01X28718Y9280D01*
G01X28686Y9312D01*
G01X28639Y9327D01*
G01X28607Y9327D01*
G01X28559Y9312D01*
G01X28527Y9280D01*
G01X28511Y9248D01*
G01X28511Y9200D01*
G01X28511Y9432D02*
G01X28734Y9432D01*
G01X28607Y9432D02*
G01X28559Y9448D01*
G01X28527Y9480D01*
G01X28511Y9512D01*
G01X28511Y9560D01*
G01X28511Y9910D02*
G01X28846Y9910D01*
G01X28559Y9910D02*
G01X28527Y9942D01*
G01X28511Y9973D01*
G01X28511Y10021D01*
G01X28527Y10053D01*
G01X28559Y10085D01*
G01X28607Y10101D01*
G01X28639Y10101D01*
G01X28686Y10085D01*
G01X28718Y10053D01*
G01X28734Y10021D01*
G01X28734Y9973D01*
G01X28718Y9942D01*
G01X28686Y9910D01*
G01X28511Y10285D02*
G01X28527Y10253D01*
G01X28559Y10222D01*
G01X28607Y10206D01*
G01X28639Y10206D01*
G01X28686Y10222D01*
G01X28718Y10253D01*
G01X28734Y10285D01*
G01X28734Y10333D01*
G01X28718Y10365D01*
G01X28686Y10397D01*
G01X28639Y10412D01*
G01X28607Y10412D01*
G01X28559Y10397D01*
G01X28527Y10365D01*
G01X28511Y10333D01*
G01X28511Y10285D01*
G01X28511Y10517D02*
G01X28734Y10581D01*
G01X28511Y10645D02*
G01X28734Y10581D01*
G01X28511Y10645D02*
G01X28734Y10708D01*
G01X28511Y10772D02*
G01X28734Y10708D01*
G01X28607Y10877D02*
G01X28607Y11068D01*
G01X28575Y11068D01*
G01X28543Y11052D01*
G01X28527Y11036D01*
G01X28511Y11004D01*
G01X28511Y10957D01*
G01X28527Y10925D01*
G01X28559Y10893D01*
G01X28607Y10877D01*
G01X28639Y10877D01*
G01X28686Y10893D01*
G01X28718Y10925D01*
G01X28734Y10957D01*
G01X28734Y11004D01*
G01X28718Y11036D01*
G01X28686Y11068D01*
G01X28511Y11173D02*
G01X28734Y11173D01*
G01X28607Y11173D02*
G01X28559Y11189D01*
G01X28527Y11221D01*
G01X28511Y11252D01*
G01X28511Y11300D01*
G01X28448Y13023D02*
G01X28416Y12990D01*
G01X28400Y12942D01*
G01X28400Y12880D01*
G01X28416Y12832D01*
G01X28448Y12800D01*
G01X28480Y12800D01*
G01X28511Y12815D01*
G01X28527Y12832D01*
G01X28543Y12863D01*
G01X28575Y12959D01*
G01X28591Y12990D01*
G01X28607Y13007D01*
G01X28639Y13023D01*
G01X28686Y13023D01*
G01X28718Y12990D01*
G01X28734Y12942D01*
G01X28734Y12880D01*
G01X28718Y12832D01*
G01X28686Y12800D01*
G01X28400Y13175D02*
G01X28671Y13175D01*
G01X28718Y13190D01*
G01X28734Y13223D01*
G01X28734Y13255D01*
G01X28511Y13128D02*
G01X28511Y13238D01*
G01X28607Y13359D02*
G01X28607Y13551D01*
G01X28575Y13551D01*
G01X28543Y13534D01*
G01X28527Y13519D01*
G01X28511Y13486D01*
G01X28511Y13440D01*
G01X28527Y13407D01*
G01X28559Y13376D01*
G01X28607Y13359D01*
G01X28639Y13359D01*
G01X28686Y13376D01*
G01X28718Y13407D01*
G01X28734Y13440D01*
G01X28734Y13486D01*
G01X28718Y13519D01*
G01X28686Y13551D01*
G01X28511Y13655D02*
G01X28846Y13655D01*
G01X28559Y13655D02*
G01X28527Y13688D01*
G01X28511Y13719D01*
G01X28511Y13767D01*
G01X28527Y13798D01*
G01X28559Y13830D01*
G01X28607Y13846D01*
G01X28639Y13846D01*
G01X28686Y13830D01*
G01X28718Y13798D01*
G01X28734Y13767D01*
G01X28734Y13719D01*
G01X28718Y13688D01*
G01X28686Y13655D01*
G01X28511Y13951D02*
G01X28846Y13951D01*
G01X28559Y13951D02*
G01X28527Y13984D01*
G01X28511Y14015D01*
G01X28511Y14063D01*
G01X28527Y14094D01*
G01X28559Y14126D01*
G01X28607Y14142D01*
G01X28639Y14142D01*
G01X28686Y14126D01*
G01X28718Y14094D01*
G01X28734Y14063D01*
G01X28734Y14015D01*
G01X28718Y13984D01*
G01X28686Y13951D01*
G01X28607Y14248D02*
G01X28607Y14438D01*
G01X28575Y14438D01*
G01X28543Y14423D01*
G01X28527Y14407D01*
G01X28511Y14375D01*
G01X28511Y14326D01*
G01X28527Y14294D01*
G01X28559Y14263D01*
G01X28607Y14248D01*
G01X28639Y14248D01*
G01X28686Y14263D01*
G01X28718Y14294D01*
G01X28734Y14326D01*
G01X28734Y14375D01*
G01X28718Y14407D01*
G01X28686Y14438D01*
G01X28511Y14544D02*
G01X28734Y14544D01*
G01X28607Y14544D02*
G01X28559Y14559D01*
G01X28527Y14590D01*
G01X28511Y14623D01*
G01X28511Y14671D01*
G01X28464Y15021D02*
G01X28448Y15053D01*
G01X28400Y15100D01*
G01X28734Y15100D01*
G01X28448Y4379D02*
G01X28416Y4347D01*
G01X28400Y4299D01*
G01X28400Y4236D01*
G01X28416Y4188D01*
G01X28448Y4156D01*
G01X28480Y4156D01*
G01X28511Y4172D01*
G01X28527Y4188D01*
G01X28543Y4220D01*
G01X28575Y4315D01*
G01X28591Y4347D01*
G01X28607Y4363D01*
G01X28639Y4379D01*
G01X28686Y4379D01*
G01X28718Y4347D01*
G01X28734Y4299D01*
G01X28734Y4236D01*
G01X28718Y4188D01*
G01X28686Y4156D01*
G01X28400Y4531D02*
G01X28671Y4531D01*
G01X28718Y4547D01*
G01X28734Y4579D01*
G01X28734Y4611D01*
G01X28511Y4484D02*
G01X28511Y4595D01*
G01X28607Y4716D02*
G01X28607Y4907D01*
G01X28575Y4907D01*
G01X28543Y4891D01*
G01X28527Y4875D01*
G01X28511Y4843D01*
G01X28511Y4796D01*
G01X28527Y4764D01*
G01X28559Y4732D01*
G01X28607Y4716D01*
G01X28639Y4716D01*
G01X28686Y4732D01*
G01X28718Y4764D01*
G01X28734Y4796D01*
G01X28734Y4843D01*
G01X28718Y4875D01*
G01X28686Y4907D01*
G01X28511Y5012D02*
G01X28846Y5012D01*
G01X28559Y5012D02*
G01X28527Y5044D01*
G01X28511Y5076D01*
G01X28511Y5123D01*
G01X28527Y5155D01*
G01X28559Y5187D01*
G01X28607Y5203D01*
G01X28639Y5203D01*
G01X28686Y5187D01*
G01X28718Y5155D01*
G01X28734Y5123D01*
G01X28734Y5076D01*
G01X28718Y5044D01*
G01X28686Y5012D01*
G01X28511Y5308D02*
G01X28846Y5308D01*
G01X28559Y5308D02*
G01X28527Y5340D01*
G01X28511Y5371D01*
G01X28511Y5419D01*
G01X28527Y5451D01*
G01X28559Y5483D01*
G01X28607Y5499D01*
G01X28639Y5499D01*
G01X28686Y5483D01*
G01X28718Y5451D01*
G01X28734Y5419D01*
G01X28734Y5371D01*
G01X28718Y5340D01*
G01X28686Y5308D01*
G01X28607Y5604D02*
G01X28607Y5795D01*
G01X28575Y5795D01*
G01X28543Y5779D01*
G01X28527Y5763D01*
G01X28511Y5731D01*
G01X28511Y5683D01*
G01X28527Y5651D01*
G01X28559Y5620D01*
G01X28607Y5604D01*
G01X28639Y5604D01*
G01X28686Y5620D01*
G01X28718Y5651D01*
G01X28734Y5683D01*
G01X28734Y5731D01*
G01X28718Y5763D01*
G01X28686Y5795D01*
G01X28511Y5900D02*
G01X28734Y5900D01*
G01X28607Y5900D02*
G01X28559Y5916D01*
G01X28527Y5947D01*
G01X28511Y5979D01*
G01X28511Y6027D01*
G01X28480Y6393D02*
G01X28464Y6393D01*
G01X28432Y6409D01*
G01X28416Y6425D01*
G01X28400Y6456D01*
G01X28400Y6520D01*
G01X28416Y6552D01*
G01X28432Y6568D01*
G01X28464Y6584D01*
G01X28496Y6584D01*
G01X28527Y6568D01*
G01X28575Y6536D01*
G01X28734Y6377D01*
G01X28734Y6600D01*
G01X27797Y9113D02*
G01X28084Y9113D01*
G01X27940Y8969D02*
G01X27940Y9255D01*
G01X27830Y9844D02*
G01X27797Y9828D01*
G01X27765Y9796D01*
G01X27750Y9765D01*
G01X27750Y9701D01*
G01X27765Y9669D01*
G01X27797Y9638D01*
G01X27830Y9621D01*
G01X27877Y9605D01*
G01X27956Y9605D01*
G01X28005Y9621D01*
G01X28035Y9638D01*
G01X28068Y9669D01*
G01X28084Y9701D01*
G01X28084Y9765D01*
G01X28068Y9796D01*
G01X28035Y9828D01*
G01X28005Y9844D01*
G01X27956Y9844D01*
G01X27956Y9765D02*
G01X27956Y9844D01*
G01X27750Y9950D02*
G01X28084Y9950D01*
G01X27750Y9950D02*
G01X28084Y10173D01*
G01X27750Y10173D02*
G01X28084Y10173D01*
G01X27750Y10278D02*
G01X28084Y10278D01*
G01X27750Y10278D02*
G01X27750Y10388D01*
G01X27765Y10436D01*
G01X27797Y10469D01*
G01X27830Y10484D01*
G01X27877Y10500D01*
G01X27956Y10500D01*
G01X28005Y10484D01*
G01X28035Y10469D01*
G01X28068Y10436D01*
G01X28084Y10388D01*
G01X28084Y10278D01*
G01X1386Y15257D02*
G01X1100Y15257D01*
G01X1243Y15400D02*
G01X1243Y15114D01*
G01X1434Y14818D02*
G01X1434Y14977D01*
G01X1291Y14993D01*
G01X1307Y14977D01*
G01X1323Y14929D01*
G01X1323Y14881D01*
G01X1307Y14834D01*
G01X1275Y14802D01*
G01X1227Y14786D01*
G01X1195Y14786D01*
G01X1148Y14802D01*
G01X1116Y14834D01*
G01X1100Y14881D01*
G01X1100Y14929D01*
G01X1116Y14977D01*
G01X1132Y14993D01*
G01X1163Y15009D01*
G01X1434Y14681D02*
G01X1100Y14554D01*
G01X1434Y14426D02*
G01X1100Y14554D01*
G01X1354Y13838D02*
G01X1386Y13854D01*
G01X1418Y13885D01*
G01X1434Y13917D01*
G01X1434Y13981D01*
G01X1418Y14013D01*
G01X1386Y14045D01*
G01X1354Y14060D01*
G01X1307Y14076D01*
G01X1227Y14076D01*
G01X1179Y14060D01*
G01X1148Y14045D01*
G01X1116Y14013D01*
G01X1100Y13981D01*
G01X1100Y13917D01*
G01X1116Y13885D01*
G01X1148Y13854D01*
G01X1179Y13838D01*
G01X1227Y13838D01*
G01X1227Y13917D02*
G01X1227Y13838D01*
G01X1434Y13733D02*
G01X1100Y13733D01*
G01X1434Y13733D02*
G01X1100Y13510D01*
G01X1434Y13510D02*
G01X1100Y13510D01*
G01X1434Y13405D02*
G01X1100Y13405D01*
G01X1434Y13405D02*
G01X1434Y13294D01*
G01X1418Y13246D01*
G01X1386Y13214D01*
G01X1354Y13198D01*
G01X1307Y13182D01*
G01X1227Y13182D01*
G01X1179Y13198D01*
G01X1148Y13214D01*
G01X1116Y13246D01*
G01X1100Y13294D01*
G01X1100Y13405D01*
G01X1434Y12721D02*
G01X1100Y12721D01*
G01X1434Y12832D02*
G01X1434Y12610D01*
G01X1434Y12505D02*
G01X1100Y12282D01*
G01X1434Y12282D02*
G01X1100Y12505D01*
G01X1434Y11932D02*
G01X1100Y11932D01*
G01X1434Y11932D02*
G01X1434Y11789D01*
G01X1418Y11741D01*
G01X1402Y11725D01*
G01X1370Y11709D01*
G01X1338Y11709D01*
G01X1307Y11725D01*
G01X1291Y11741D01*
G01X1275Y11789D01*
G01X1275Y11932D01*
G01X1275Y11820D02*
G01X1100Y11709D01*
G01X1434Y11604D02*
G01X1100Y11381D01*
G01X1434Y11381D02*
G01X1100Y11604D01*
G01X1434Y10566D02*
G01X1148Y10566D01*
G01X1291Y10709D02*
G01X1291Y10423D01*
G01X1482Y10127D02*
G01X1482Y10286D01*
G01X1339Y10302D01*
G01X1355Y10286D01*
G01X1371Y10238D01*
G01X1371Y10190D01*
G01X1355Y10143D01*
G01X1323Y10111D01*
G01X1275Y10095D01*
G01X1243Y10095D01*
G01X1196Y10111D01*
G01X1164Y10143D01*
G01X1148Y10190D01*
G01X1148Y10238D01*
G01X1164Y10286D01*
G01X1180Y10302D01*
G01X1211Y10318D01*
G01X1482Y9990D02*
G01X1148Y9863D01*
G01X1482Y9735D02*
G01X1148Y9863D01*
G01X1402Y9147D02*
G01X1434Y9163D01*
G01X1466Y9194D01*
G01X1482Y9226D01*
G01X1482Y9290D01*
G01X1466Y9322D01*
G01X1434Y9354D01*
G01X1402Y9369D01*
G01X1355Y9385D01*
G01X1275Y9385D01*
G01X1227Y9369D01*
G01X1196Y9354D01*
G01X1164Y9322D01*
G01X1148Y9290D01*
G01X1148Y9226D01*
G01X1164Y9194D01*
G01X1196Y9163D01*
G01X1227Y9147D01*
G01X1275Y9147D01*
G01X1275Y9226D02*
G01X1275Y9147D01*
G01X1482Y9042D02*
G01X1148Y9042D01*
G01X1482Y9042D02*
G01X1148Y8819D01*
G01X1482Y8819D02*
G01X1148Y8819D01*
G01X1482Y8714D02*
G01X1148Y8714D01*
G01X1482Y8714D02*
G01X1482Y8603D01*
G01X1466Y8555D01*
G01X1434Y8523D01*
G01X1402Y8507D01*
G01X1355Y8491D01*
G01X1275Y8491D01*
G01X1227Y8507D01*
G01X1196Y8523D01*
G01X1164Y8555D01*
G01X1148Y8603D01*
G01X1148Y8714D01*
G01X1434Y7919D02*
G01X1466Y7950D01*
G01X1482Y7998D01*
G01X1482Y8062D01*
G01X1466Y8109D01*
G01X1434Y8141D01*
G01X1402Y8141D01*
G01X1371Y8125D01*
G01X1355Y8109D01*
G01X1339Y8078D01*
G01X1307Y7982D01*
G01X1291Y7950D01*
G01X1275Y7934D01*
G01X1243Y7919D01*
G01X1196Y7919D01*
G01X1164Y7950D01*
G01X1148Y7998D01*
G01X1148Y8062D01*
G01X1164Y8109D01*
G01X1196Y8141D01*
G01X1482Y7814D02*
G01X1148Y7814D01*
G01X1482Y7814D02*
G01X1482Y7702D01*
G01X1466Y7654D01*
G01X1434Y7623D01*
G01X1402Y7607D01*
G01X1355Y7591D01*
G01X1275Y7591D01*
G01X1227Y7607D01*
G01X1196Y7623D01*
G01X1164Y7654D01*
G01X1148Y7702D01*
G01X1148Y7814D01*
G01X1482Y7359D02*
G01X1148Y7486D01*
G01X1482Y7359D02*
G01X1148Y7231D01*
G01X1259Y7438D02*
G01X1259Y7279D01*
G01X1434Y6659D02*
G01X1466Y6690D01*
G01X1482Y6738D01*
G01X1482Y6802D01*
G01X1466Y6849D01*
G01X1434Y6881D01*
G01X1402Y6881D01*
G01X1371Y6865D01*
G01X1355Y6849D01*
G01X1339Y6818D01*
G01X1307Y6722D01*
G01X1291Y6690D01*
G01X1275Y6674D01*
G01X1243Y6659D01*
G01X1196Y6659D01*
G01X1164Y6690D01*
G01X1148Y6738D01*
G01X1148Y6802D01*
G01X1164Y6849D01*
G01X1196Y6881D01*
G01X1402Y6315D02*
G01X1434Y6331D01*
G01X1466Y6363D01*
G01X1482Y6394D01*
G01X1482Y6458D01*
G01X1466Y6490D01*
G01X1434Y6522D01*
G01X1402Y6538D01*
G01X1355Y6554D01*
G01X1275Y6554D01*
G01X1227Y6538D01*
G01X1196Y6522D01*
G01X1164Y6490D01*
G01X1148Y6458D01*
G01X1148Y6394D01*
G01X1164Y6363D01*
G01X1196Y6331D01*
G01X1227Y6315D01*
G01X1482Y6210D02*
G01X1148Y6210D01*
G01X1148Y6210D02*
G01X1148Y6019D01*
G01X9300Y4164D02*
G01X9387Y3817D01*
G01X9300Y4164D02*
G01X9596Y3964D01*
G01X9363Y3936D02*
G01X9493Y4027D01*
G01X9527Y4245D02*
G01X9543Y4276D01*
G01X9555Y4343D01*
G01X9747Y4069D01*
G01X9839Y4619D02*
G01X9897Y4038D01*
G01X9961Y4627D02*
G01X10153Y4354D01*
G01X9961Y4627D02*
G01X10053Y4691D01*
G01X10102Y4706D01*
G01X10145Y4697D01*
G01X10177Y4680D01*
G01X10217Y4651D01*
G01X10263Y4586D01*
G01X10277Y4537D01*
G01X10282Y4502D01*
G01X10275Y4458D01*
G01X10245Y4418D01*
G01X10153Y4354D01*
G01X10267Y4763D02*
G01X10284Y4794D01*
G01X10296Y4861D01*
G01X10487Y4588D01*
G01X10615Y4949D02*
G01X10629Y4901D01*
G01X10621Y4856D01*
G01X10591Y4815D01*
G01X10578Y4806D01*
G01X10530Y4792D01*
G01X10486Y4800D01*
G01X10445Y4830D01*
G01X10437Y4843D01*
G01X10422Y4891D01*
G01X10429Y4935D01*
G01X10459Y4976D01*
G01X10473Y4985D01*
G01X10521Y4999D01*
G01X10566Y4992D01*
G01X10615Y4949D01*
G01X10661Y4884D01*
G01X10693Y4809D01*
G01X10694Y4752D01*
G01X10664Y4711D01*
G01X10638Y4693D01*
G01X10590Y4679D01*
G01X10559Y4696D01*
G01X10800Y4190D02*
G01X10887Y3844D01*
G01X10800Y4190D02*
G01X11096Y3990D01*
G01X10863Y3963D02*
G01X10993Y4054D01*
G01X11049Y4267D02*
G01X11039Y4280D01*
G01X11034Y4316D01*
G01X11038Y4338D01*
G01X11055Y4369D01*
G01X11107Y4406D01*
G01X11143Y4411D01*
G01X11164Y4407D01*
G01X11196Y4390D01*
G01X11214Y4364D01*
G01X11219Y4329D01*
G01X11221Y4272D01*
G01X11182Y4051D01*
G01X11364Y4178D01*
G01X11457Y4729D02*
G01X11514Y4146D01*
G01X11579Y4737D02*
G01X11771Y4463D01*
G01X11579Y4737D02*
G01X11670Y4800D01*
G01X11719Y4815D01*
G01X11763Y4807D01*
G01X11794Y4789D01*
G01X11834Y4760D01*
G01X11880Y4694D01*
G01X11894Y4646D01*
G01X11900Y4612D01*
G01X11892Y4567D01*
G01X11862Y4527D01*
G01X11771Y4463D01*
G01X11906Y4868D02*
G01X11897Y4881D01*
G01X11892Y4916D01*
G01X11896Y4939D01*
G01X11913Y4970D01*
G01X11965Y5007D01*
G01X12000Y5011D01*
G01X12022Y5007D01*
G01X12053Y4990D01*
G01X12072Y4964D01*
G01X12077Y4930D01*
G01X12078Y4872D01*
G01X12039Y4650D01*
G01X12221Y4778D01*
G01X12195Y5167D02*
G01X12164Y5127D01*
G01X12166Y5069D01*
G01X12198Y4995D01*
G01X12225Y4956D01*
G01X12284Y4899D01*
G01X12338Y4879D01*
G01X12386Y4894D01*
G01X12411Y4911D01*
G01X12442Y4952D01*
G01X12441Y5009D01*
G01X12408Y5084D01*
G01X12381Y5123D01*
G01X12322Y5179D01*
G01X12268Y5199D01*
G01X12220Y5185D01*
G01X12195Y5167D01*
G01X12299Y4232D02*
G01X12387Y3885D01*
G01X12299Y4232D02*
G01X12596Y4032D01*
G01X12363Y4004D02*
G01X12493Y4095D01*
G01X12516Y4383D02*
G01X12659Y4484D01*
G01X12654Y4325D01*
G01X12693Y4353D01*
G01X12728Y4357D01*
G01X12750Y4353D01*
G01X12791Y4323D01*
G01X12809Y4297D01*
G01X12823Y4249D01*
G01X12816Y4205D01*
G01X12786Y4165D01*
G01X12747Y4137D01*
G01X12698Y4123D01*
G01X12676Y4127D01*
G01X12646Y4144D01*
G01X12957Y4770D02*
G01X13014Y4188D01*
G01X13079Y4778D02*
G01X13271Y4504D01*
G01X13079Y4778D02*
G01X13170Y4842D01*
G01X13219Y4856D01*
G01X13263Y4848D01*
G01X13294Y4831D01*
G01X13334Y4801D01*
G01X13380Y4736D01*
G01X13394Y4687D01*
G01X13400Y4653D01*
G01X13392Y4609D01*
G01X13362Y4568D01*
G01X13271Y4504D01*
G01X13406Y4909D02*
G01X13397Y4922D01*
G01X13392Y4958D01*
G01X13396Y4980D01*
G01X13413Y5011D01*
G01X13465Y5048D01*
G01X13500Y5053D01*
G01X13522Y5049D01*
G01X13553Y5032D01*
G01X13572Y5006D01*
G01X13576Y4971D01*
G01X13578Y4913D01*
G01X13539Y4692D01*
G01X13721Y4820D01*
G01X13653Y5101D02*
G01X13670Y5133D01*
G01X13681Y5199D01*
G01X13873Y4926D01*
G01X14900Y4200D02*
G01X14900Y3866D01*
G01X14900Y4200D02*
G01X15010Y4200D01*
G01X15059Y4184D01*
G01X15090Y4152D01*
G01X15106Y4120D01*
G01X15122Y4073D01*
G01X15122Y3993D01*
G01X15106Y3945D01*
G01X15090Y3914D01*
G01X15059Y3882D01*
G01X15010Y3866D01*
G01X14900Y3866D01*
G01X15227Y4136D02*
G01X15260Y4152D01*
G01X15306Y4200D01*
G01X15306Y3866D01*
G01X15571Y4200D02*
G01X15411Y3977D01*
G01X15651Y3977D01*
G01X15571Y4200D02*
G01X15571Y3866D01*
G01X16400Y4200D02*
G01X16400Y3866D01*
G01X16400Y4200D02*
G01X16510Y4200D01*
G01X16559Y4184D01*
G01X16590Y4152D01*
G01X16606Y4120D01*
G01X16622Y4073D01*
G01X16622Y3993D01*
G01X16606Y3945D01*
G01X16590Y3914D01*
G01X16559Y3882D01*
G01X16510Y3866D01*
G01X16400Y3866D01*
G01X16727Y4136D02*
G01X16760Y4152D01*
G01X16806Y4200D01*
G01X16806Y3866D01*
G01X17102Y4200D02*
G01X16943Y4200D01*
G01X16927Y4057D01*
G01X16943Y4073D01*
G01X16992Y4089D01*
G01X17039Y4089D01*
G01X17086Y4073D01*
G01X17118Y4041D01*
G01X17135Y3993D01*
G01X17135Y3961D01*
G01X17118Y3914D01*
G01X17086Y3882D01*
G01X17039Y3866D01*
G01X16992Y3866D01*
G01X16943Y3882D01*
G01X16927Y3898D01*
G01X16911Y3929D01*
G01X17900Y4199D02*
G01X17900Y3865D01*
G01X17900Y4199D02*
G01X18010Y4199D01*
G01X18059Y4183D01*
G01X18090Y4151D01*
G01X18106Y4119D01*
G01X18122Y4072D01*
G01X18122Y3992D01*
G01X18106Y3944D01*
G01X18090Y3913D01*
G01X18059Y3881D01*
G01X18010Y3865D01*
G01X17900Y3865D01*
G01X18227Y4135D02*
G01X18260Y4151D01*
G01X18306Y4199D01*
G01X18306Y3865D01*
G01X18602Y4151D02*
G01X18586Y4183D01*
G01X18539Y4199D01*
G01X18507Y4199D01*
G01X18460Y4183D01*
G01X18427Y4135D01*
G01X18411Y4056D01*
G01X18411Y3976D01*
G01X18427Y3913D01*
G01X18460Y3881D01*
G01X18507Y3865D01*
G01X18523Y3865D01*
G01X18571Y3881D01*
G01X18602Y3913D01*
G01X18618Y3960D01*
G01X18618Y3976D01*
G01X18602Y4024D01*
G01X18571Y4056D01*
G01X18523Y4072D01*
G01X18507Y4072D01*
G01X18460Y4056D01*
G01X18427Y4024D01*
G01X18411Y3976D01*
G01X13642Y2352D02*
G01X13642Y2066D01*
G01X13499Y2209D02*
G01X13785Y2209D01*
G01X14081Y2400D02*
G01X13922Y2400D01*
G01X13906Y2257D01*
G01X13922Y2273D01*
G01X13970Y2289D01*
G01X14018Y2289D01*
G01X14065Y2273D01*
G01X14097Y2241D01*
G01X14113Y2193D01*
G01X14113Y2161D01*
G01X14097Y2114D01*
G01X14065Y2082D01*
G01X14018Y2066D01*
G01X13970Y2066D01*
G01X13922Y2082D01*
G01X13906Y2098D01*
G01X13890Y2129D01*
G01X14218Y2400D02*
G01X14345Y2066D01*
G01X14473Y2400D02*
G01X14345Y2066D01*
G01X11399Y18199D02*
G01X11399Y17865D01*
G01X11399Y18199D02*
G01X11542Y18199D01*
G01X11590Y18183D01*
G01X11606Y18167D01*
G01X11622Y18135D01*
G01X11622Y18103D01*
G01X11606Y18072D01*
G01X11590Y18056D01*
G01X11542Y18040D01*
G01X11399Y18040D01*
G01X11510Y18040D02*
G01X11622Y17865D01*
G01X11854Y18199D02*
G01X11727Y17865D01*
G01X11854Y18199D02*
G01X11981Y17865D01*
G01X11774Y17976D02*
G01X11934Y17976D01*
G01X12086Y18199D02*
G01X12166Y17865D01*
G01X12245Y18199D02*
G01X12166Y17865D01*
G01X12245Y18199D02*
G01X12325Y17865D01*
G01X12404Y18199D02*
G01X12325Y17865D01*
G01X17900Y18000D02*
G01X17900Y17666D01*
G01X17900Y18000D02*
G01X18010Y18000D01*
G01X18059Y17984D01*
G01X18090Y17952D01*
G01X18106Y17920D01*
G01X18122Y17873D01*
G01X18122Y17793D01*
G01X18106Y17745D01*
G01X18090Y17714D01*
G01X18059Y17682D01*
G01X18010Y17666D01*
G01X17900Y17666D01*
G01X18435Y17889D02*
G01X18418Y17841D01*
G01X18386Y17809D01*
G01X18339Y17793D01*
G01X18322Y17793D01*
G01X18275Y17809D01*
G01X18243Y17841D01*
G01X18227Y17889D01*
G01X18227Y17904D01*
G01X18243Y17952D01*
G01X18275Y17984D01*
G01X18322Y18000D01*
G01X18339Y18000D01*
G01X18386Y17984D01*
G01X18418Y17952D01*
G01X18435Y17889D01*
G01X18435Y17809D01*
G01X18418Y17729D01*
G01X18386Y17682D01*
G01X18339Y17666D01*
G01X18306Y17666D01*
G01X18260Y17682D01*
G01X18243Y17714D01*
G01X10867Y19123D02*
G01X10828Y19161D01*
G01X10772Y19180D01*
G01X10694Y19180D01*
G01X10638Y19161D01*
G01X10600Y19123D01*
G01X10600Y19085D01*
G01X10618Y19046D01*
G01X10638Y19027D01*
G01X10676Y19008D01*
G01X10790Y18970D01*
G01X10828Y18951D01*
G01X10847Y18932D01*
G01X10867Y18894D01*
G01X10867Y18836D01*
G01X10828Y18798D01*
G01X10772Y18779D01*
G01X10694Y18779D01*
G01X10638Y18798D01*
G01X10600Y18836D01*
G01X11051Y19180D02*
G01X11051Y18856D01*
G01X11069Y18798D01*
G01X11107Y18779D01*
G01X11146Y18779D01*
G01X10993Y19046D02*
G01X11127Y19046D01*
G01X11272Y18932D02*
G01X11501Y18932D01*
G01X11501Y18970D01*
G01X11481Y19008D01*
G01X11463Y19027D01*
G01X11425Y19046D01*
G01X11367Y19046D01*
G01X11328Y19027D01*
G01X11290Y18989D01*
G01X11272Y18932D01*
G01X11272Y18894D01*
G01X11290Y18836D01*
G01X11328Y18798D01*
G01X11367Y18779D01*
G01X11425Y18779D01*
G01X11463Y18798D01*
G01X11501Y18836D01*
G01X11627Y19046D02*
G01X11627Y18646D01*
G01X11627Y18989D02*
G01X11664Y19027D01*
G01X11702Y19046D01*
G01X11760Y19046D01*
G01X11798Y19027D01*
G01X11836Y18989D01*
G01X11856Y18932D01*
G01X11856Y18894D01*
G01X11836Y18836D01*
G01X11798Y18798D01*
G01X11760Y18779D01*
G01X11702Y18779D01*
G01X11664Y18798D01*
G01X11627Y18836D01*
G01X11981Y19046D02*
G01X11981Y18646D01*
G01X11981Y18989D02*
G01X12019Y19027D01*
G01X12059Y19046D01*
G01X12115Y19046D01*
G01X12153Y19027D01*
G01X12192Y18989D01*
G01X12210Y18932D01*
G01X12210Y18894D01*
G01X12192Y18836D01*
G01X12153Y18798D01*
G01X12115Y18779D01*
G01X12059Y18779D01*
G01X12019Y18798D01*
G01X11981Y18836D01*
G01X12336Y18932D02*
G01X12565Y18932D01*
G01X12565Y18970D01*
G01X12547Y19008D01*
G01X12527Y19027D01*
G01X12489Y19046D01*
G01X12432Y19046D01*
G01X12394Y19027D01*
G01X12356Y18989D01*
G01X12336Y18932D01*
G01X12336Y18894D01*
G01X12356Y18836D01*
G01X12394Y18798D01*
G01X12432Y18779D01*
G01X12489Y18779D01*
G01X12527Y18798D01*
G01X12565Y18836D01*
G01X12692Y19046D02*
G01X12692Y18779D01*
G01X12692Y18932D02*
G01X12710Y18989D01*
G01X12750Y19027D01*
G01X12788Y19046D01*
G01X12844Y19046D01*
G01X13264Y19046D02*
G01X13264Y18779D01*
G01X13264Y18970D02*
G01X13322Y19027D01*
G01X13360Y19046D01*
G01X13418Y19046D01*
G01X13456Y19027D01*
G01X13475Y18970D01*
G01X13475Y18779D01*
G01X13475Y18970D02*
G01X13531Y19027D01*
G01X13571Y19046D01*
G01X13627Y19046D01*
G01X13665Y19027D01*
G01X13685Y18970D01*
G01X13685Y18779D01*
G01X13906Y19046D02*
G01X13868Y19027D01*
G01X13830Y18989D01*
G01X13810Y18932D01*
G01X13810Y18894D01*
G01X13830Y18836D01*
G01X13868Y18798D01*
G01X13906Y18779D01*
G01X13964Y18779D01*
G01X14002Y18798D01*
G01X14039Y18836D01*
G01X14059Y18894D01*
G01X14059Y18932D01*
G01X14039Y18989D01*
G01X14002Y19027D01*
G01X13964Y19046D01*
G01X13906Y19046D01*
G01X14243Y19180D02*
G01X14243Y18856D01*
G01X14261Y18798D01*
G01X14300Y18779D01*
G01X14338Y18779D01*
G01X14185Y19046D02*
G01X14318Y19046D01*
G01X14559Y19046D02*
G01X14521Y19027D01*
G01X14482Y18989D01*
G01X14464Y18932D01*
G01X14464Y18894D01*
G01X14482Y18836D01*
G01X14521Y18798D01*
G01X14559Y18779D01*
G01X14617Y18779D01*
G01X14655Y18798D01*
G01X14693Y18836D01*
G01X14711Y18894D01*
G01X14711Y18932D01*
G01X14693Y18989D01*
G01X14655Y19027D01*
G01X14617Y19046D01*
G01X14559Y19046D01*
G01X14838Y19046D02*
G01X14838Y18779D01*
G01X14838Y18932D02*
G01X14856Y18989D01*
G01X14894Y19027D01*
G01X14934Y19046D01*
G01X14990Y19046D01*
G01X15410Y19046D02*
G01X15410Y18779D01*
G01X15410Y18932D02*
G01X15430Y18989D01*
G01X15468Y19027D01*
G01X15506Y19046D01*
G01X15564Y19046D01*
G01X15785Y19046D02*
G01X15747Y19027D01*
G01X15709Y18989D01*
G01X15689Y18932D01*
G01X15689Y18894D01*
G01X15709Y18836D01*
G01X15747Y18798D01*
G01X15785Y18779D01*
G01X15842Y18779D01*
G01X15881Y18798D01*
G01X15918Y18836D01*
G01X15938Y18894D01*
G01X15938Y18932D01*
G01X15918Y18989D01*
G01X15881Y19027D01*
G01X15842Y19046D01*
G01X15785Y19046D01*
G01X16064Y19180D02*
G01X16064Y18779D01*
G01X16064Y18989D02*
G01X16102Y19027D01*
G01X16139Y19046D01*
G01X16197Y19046D01*
G01X16235Y19027D01*
G01X16273Y18989D01*
G01X16293Y18932D01*
G01X16293Y18894D01*
G01X16273Y18836D01*
G01X16235Y18798D01*
G01X16197Y18779D01*
G01X16139Y18779D01*
G01X16102Y18798D01*
G01X16064Y18836D01*
G01X16514Y19046D02*
G01X16476Y19027D01*
G01X16438Y18989D01*
G01X16418Y18932D01*
G01X16418Y18894D01*
G01X16438Y18836D01*
G01X16476Y18798D01*
G01X16514Y18779D01*
G01X16572Y18779D01*
G01X16610Y18798D01*
G01X16647Y18836D01*
G01X16667Y18894D01*
G01X16667Y18932D01*
G01X16647Y18989D01*
G01X16610Y19027D01*
G01X16572Y19046D01*
G01X16514Y19046D01*
G01X16850Y19180D02*
G01X16850Y18856D01*
G01X16868Y18798D01*
G01X16907Y18779D01*
G01X16946Y18779D01*
G01X16793Y19046D02*
G01X16927Y19046D01*
G01X17594Y18989D02*
G01X17556Y19027D01*
G01X17518Y19046D01*
G01X17460Y19046D01*
G01X17422Y19027D01*
G01X17385Y18989D01*
G01X17365Y18932D01*
G01X17365Y18894D01*
G01X17385Y18836D01*
G01X17422Y18798D01*
G01X17460Y18779D01*
G01X17518Y18779D01*
G01X17556Y18798D01*
G01X17594Y18836D01*
G01X17815Y19046D02*
G01X17777Y19027D01*
G01X17739Y18989D01*
G01X17721Y18932D01*
G01X17721Y18894D01*
G01X17739Y18836D01*
G01X17777Y18798D01*
G01X17815Y18779D01*
G01X17873Y18779D01*
G01X17911Y18798D01*
G01X17950Y18836D01*
G01X17968Y18894D01*
G01X17968Y18932D01*
G01X17950Y18989D01*
G01X17911Y19027D01*
G01X17873Y19046D01*
G01X17815Y19046D01*
G01X18094Y19046D02*
G01X18094Y18779D01*
G01X18094Y18970D02*
G01X18152Y19027D01*
G01X18190Y19046D01*
G01X18247Y19046D01*
G01X18285Y19027D01*
G01X18305Y18970D01*
G01X18305Y18779D01*
G01X18488Y19180D02*
G01X18488Y18856D01*
G01X18506Y18798D01*
G01X18546Y18779D01*
G01X18584Y18779D01*
G01X18431Y19046D02*
G01X18564Y19046D01*
G01X18710Y19046D02*
G01X18710Y18779D01*
G01X18710Y18932D02*
G01X18728Y18989D01*
G01X18767Y19027D01*
G01X18805Y19046D01*
G01X18863Y19046D01*
G01X19084Y19046D02*
G01X19046Y19027D01*
G01X19007Y18989D01*
G01X18989Y18932D01*
G01X18989Y18894D01*
G01X19007Y18836D01*
G01X19046Y18798D01*
G01X19084Y18779D01*
G01X19140Y18779D01*
G01X19178Y18798D01*
G01X19218Y18836D01*
G01X19236Y18894D01*
G01X19236Y18932D01*
G01X19218Y18989D01*
G01X19178Y19027D01*
G01X19140Y19046D01*
G01X19084Y19046D01*
G01X19363Y19180D02*
G01X19363Y18779D01*
G01X19489Y19180D02*
G01X19489Y18779D01*
G01X19614Y18932D02*
G01X19843Y18932D01*
G01X19843Y18970D01*
G01X19825Y19008D01*
G01X19806Y19027D01*
G01X19767Y19046D01*
G01X19710Y19046D01*
G01X19672Y19027D01*
G01X19634Y18989D01*
G01X19614Y18932D01*
G01X19614Y18894D01*
G01X19634Y18836D01*
G01X19672Y18798D01*
G01X19710Y18779D01*
G01X19767Y18779D01*
G01X19806Y18798D01*
G01X19843Y18836D01*
G01X19969Y19046D02*
G01X19969Y18779D01*
G01X19969Y18932D02*
G01X19989Y18989D01*
G01X20027Y19027D01*
G01X20064Y19046D01*
G01X20122Y19046D01*
G01X20543Y19180D02*
G01X20543Y18779D01*
G01X20543Y18989D02*
G01X20581Y19027D01*
G01X20618Y19046D01*
G01X20676Y19046D01*
G01X20714Y19027D01*
G01X20752Y18989D01*
G01X20772Y18932D01*
G01X20772Y18894D01*
G01X20752Y18836D01*
G01X20714Y18798D01*
G01X20676Y18779D01*
G01X20618Y18779D01*
G01X20581Y18798D01*
G01X20543Y18836D01*
G01X20917Y19046D02*
G01X21031Y18779D01*
G01X21146Y19046D02*
G01X21031Y18779D01*
G01X20993Y18703D01*
G01X20955Y18665D01*
G01X20917Y18646D01*
G01X20897Y18646D01*
G01X21718Y19180D02*
G01X21565Y18779D01*
G01X21718Y19180D02*
G01X21871Y18779D01*
G01X21622Y18913D02*
G01X21814Y18913D01*
G01X21997Y19046D02*
G01X22206Y18779D01*
G01X22206Y19046D02*
G01X21997Y18779D01*
G01X22332Y18932D02*
G01X22561Y18932D01*
G01X22561Y18970D01*
G01X22543Y19008D01*
G01X22523Y19027D01*
G01X22485Y19046D01*
G01X22428Y19046D01*
G01X22390Y19027D01*
G01X22352Y18989D01*
G01X22332Y18932D01*
G01X22332Y18894D01*
G01X22352Y18836D01*
G01X22390Y18798D01*
G01X22428Y18779D01*
G01X22485Y18779D01*
G01X22523Y18798D01*
G01X22561Y18836D01*
G01X22688Y19180D02*
G01X22688Y18779D01*
G01X23107Y19180D02*
G01X23107Y18779D01*
G01X23107Y19180D02*
G01X23280Y19180D01*
G01X23336Y19161D01*
G01X23356Y19142D01*
G01X23376Y19104D01*
G01X23376Y19066D01*
G01X23356Y19027D01*
G01X23336Y19008D01*
G01X23280Y18989D01*
G01X23107Y18989D02*
G01X23280Y18989D01*
G01X23336Y18970D01*
G01X23356Y18951D01*
G01X23376Y18913D01*
G01X23376Y18856D01*
G01X23356Y18817D01*
G01X23336Y18798D01*
G01X23280Y18779D01*
G01X23107Y18779D01*
G01X23502Y19046D02*
G01X23502Y18779D01*
G01X23502Y18932D02*
G01X23521Y18989D01*
G01X23559Y19027D01*
G01X23597Y19046D01*
G01X23653Y19046D01*
G01X23780Y19180D02*
G01X23798Y19161D01*
G01X23818Y19180D01*
G01X23798Y19199D01*
G01X23780Y19180D01*
G01X23798Y19046D02*
G01X23798Y18779D01*
G01X23944Y19046D02*
G01X23944Y18779D01*
G01X23944Y18970D02*
G01X24002Y19027D01*
G01X24039Y19046D01*
G01X24097Y19046D01*
G01X24135Y19027D01*
G01X24155Y18970D01*
G01X24155Y18779D01*
G01X24281Y19180D02*
G01X24281Y18779D01*
G01X24471Y19046D02*
G01X24281Y18856D01*
G01X24356Y18932D02*
G01X24490Y18779D01*
G01X24617Y18932D02*
G01X24846Y18932D01*
G01X24846Y18970D01*
G01X24827Y19008D01*
G01X24806Y19027D01*
G01X24768Y19046D01*
G01X24711Y19046D01*
G01X24673Y19027D01*
G01X24635Y18989D01*
G01X24617Y18932D01*
G01X24617Y18894D01*
G01X24635Y18836D01*
G01X24673Y18798D01*
G01X24711Y18779D01*
G01X24768Y18779D01*
G01X24806Y18798D01*
G01X24846Y18836D01*
G01X24972Y19180D02*
G01X24972Y18779D01*
G01X24972Y18989D02*
G01X25010Y19027D01*
G01X25047Y19046D01*
G01X25105Y19046D01*
G01X25143Y19027D01*
G01X25181Y18989D01*
G01X25201Y18932D01*
G01X25201Y18894D01*
G01X25181Y18836D01*
G01X25143Y18798D01*
G01X25105Y18779D01*
G01X25047Y18779D01*
G01X25010Y18798D01*
G01X24972Y18836D01*
G01X25346Y19046D02*
G01X25460Y18779D01*
G01X25575Y19046D02*
G01X25460Y18779D01*
G01X25422Y18703D01*
G01X25384Y18665D01*
G01X25346Y18646D01*
G01X25327Y18646D01*
G01X4900Y2899D02*
G01X4900Y2565D01*
G01X4900Y2899D02*
G01X5042Y2899D01*
G01X5090Y2883D01*
G01X5107Y2867D01*
G01X5123Y2835D01*
G01X5123Y2803D01*
G01X5107Y2772D01*
G01X5090Y2756D01*
G01X5042Y2740D01*
G01X4900Y2740D02*
G01X5042Y2740D01*
G01X5090Y2724D01*
G01X5107Y2708D01*
G01X5123Y2676D01*
G01X5123Y2628D01*
G01X5107Y2597D01*
G01X5090Y2581D01*
G01X5042Y2565D01*
G01X4900Y2565D01*
G01X5228Y2788D02*
G01X5228Y2628D01*
G01X5244Y2581D01*
G01X5275Y2565D01*
G01X5323Y2565D01*
G01X5355Y2581D01*
G01X5403Y2628D01*
G01X5403Y2788D02*
G01X5403Y2565D01*
G01X5682Y2788D02*
G01X5507Y2565D01*
G01X5507Y2788D02*
G01X5682Y2788D01*
G01X5507Y2565D02*
G01X5682Y2565D01*
G01X5963Y2788D02*
G01X5788Y2565D01*
G01X5788Y2788D02*
G01X5963Y2788D01*
G01X5788Y2565D02*
G01X5963Y2565D01*
G01X6242Y2788D02*
G01X6067Y2565D01*
G01X6067Y2788D02*
G01X6242Y2788D01*
G01X6067Y2565D02*
G01X6242Y2565D01*
G01X6363Y2644D02*
G01X6348Y2628D01*
G01X6363Y2613D01*
G01X6380Y2628D01*
G01X6363Y2644D01*
G01X6500Y2644D02*
G01X6484Y2628D01*
G01X6500Y2613D01*
G01X6515Y2628D01*
G01X6500Y2644D01*
G01X6636Y2644D02*
G01X6621Y2628D01*
G01X6636Y2613D01*
G01X6653Y2628D01*
G01X6636Y2644D01*
G01X2000Y4700D02*
G01X2000Y4366D01*
G01X2000Y4700D02*
G01X2111Y4700D01*
G01X2159Y4684D01*
G01X2190Y4652D01*
G01X2207Y4620D01*
G01X2223Y4573D01*
G01X2223Y4493D01*
G01X2207Y4445D01*
G01X2190Y4414D01*
G01X2159Y4382D01*
G01X2111Y4366D01*
G01X2000Y4366D01*
G01X2328Y4636D02*
G01X2359Y4652D01*
G01X2407Y4700D01*
G01X2407Y4366D01*
G01X2607Y4700D02*
G01X2559Y4684D01*
G01X2528Y4636D01*
G01X2511Y4557D01*
G01X2511Y4509D01*
G01X2528Y4429D01*
G01X2559Y4382D01*
G01X2607Y4366D01*
G01X2640Y4366D01*
G01X2686Y4382D01*
G01X2719Y4429D01*
G01X2734Y4509D01*
G01X2734Y4557D01*
G01X2719Y4636D01*
G01X2686Y4684D01*
G01X2640Y4700D01*
G01X2607Y4700D01*
G01X4999Y15599D02*
G01X4999Y15265D01*
G01X4999Y15599D02*
G01X5142Y15599D01*
G01X5190Y15583D01*
G01X5206Y15567D01*
G01X5222Y15535D01*
G01X5222Y15503D01*
G01X5206Y15472D01*
G01X5190Y15456D01*
G01X5142Y15440D01*
G01X4999Y15440D01*
G01X5110Y15440D02*
G01X5222Y15265D01*
G01X5454Y15599D02*
G01X5327Y15265D01*
G01X5454Y15599D02*
G01X5581Y15265D01*
G01X5374Y15376D02*
G01X5534Y15376D01*
G01X5686Y15599D02*
G01X5766Y15265D01*
G01X5845Y15599D02*
G01X5766Y15265D01*
G01X5845Y15599D02*
G01X5925Y15265D01*
G01X6004Y15599D02*
G01X5925Y15265D01*
G01X6354Y15488D02*
G01X6354Y15153D01*
G01X6354Y15440D02*
G01X6386Y15472D01*
G01X6418Y15488D01*
G01X6466Y15488D01*
G01X6498Y15472D01*
G01X6529Y15440D01*
G01X6545Y15392D01*
G01X6545Y15360D01*
G01X6529Y15313D01*
G01X6498Y15281D01*
G01X6466Y15265D01*
G01X6418Y15265D01*
G01X6386Y15281D01*
G01X6354Y15313D01*
G01X6730Y15488D02*
G01X6698Y15472D01*
G01X6666Y15440D01*
G01X6650Y15392D01*
G01X6650Y15360D01*
G01X6666Y15313D01*
G01X6698Y15281D01*
G01X6730Y15265D01*
G01X6778Y15265D01*
G01X6809Y15281D01*
G01X6841Y15313D01*
G01X6857Y15360D01*
G01X6857Y15392D01*
G01X6841Y15440D01*
G01X6809Y15472D01*
G01X6778Y15488D01*
G01X6730Y15488D01*
G01X6962Y15488D02*
G01X7026Y15265D01*
G01X7089Y15488D02*
G01X7026Y15265D01*
G01X7089Y15488D02*
G01X7153Y15265D01*
G01X7217Y15488D02*
G01X7153Y15265D01*
G01X7322Y15392D02*
G01X7513Y15392D01*
G01X7513Y15424D01*
G01X7497Y15456D01*
G01X7481Y15472D01*
G01X7449Y15488D01*
G01X7401Y15488D01*
G01X7369Y15472D01*
G01X7338Y15440D01*
G01X7322Y15392D01*
G01X7322Y15360D01*
G01X7338Y15313D01*
G01X7369Y15281D01*
G01X7401Y15265D01*
G01X7449Y15265D01*
G01X7481Y15281D01*
G01X7513Y15313D01*
G01X7618Y15488D02*
G01X7618Y15265D01*
G01X7618Y15392D02*
G01X7634Y15440D01*
G01X7665Y15472D01*
G01X7697Y15488D01*
G01X7745Y15488D01*
G01X4800Y16599D02*
G01X4800Y16265D01*
G01X4800Y16599D02*
G01X4927Y16265D01*
G01X5055Y16599D02*
G01X4927Y16265D01*
G01X5055Y16599D02*
G01X5055Y16265D01*
G01X5239Y16488D02*
G01X5207Y16472D01*
G01X5175Y16440D01*
G01X5160Y16392D01*
G01X5160Y16360D01*
G01X5175Y16313D01*
G01X5207Y16281D01*
G01X5239Y16265D01*
G01X5287Y16265D01*
G01X5319Y16281D01*
G01X5350Y16313D01*
G01X5366Y16360D01*
G01X5366Y16392D01*
G01X5350Y16440D01*
G01X5319Y16472D01*
G01X5287Y16488D01*
G01X5239Y16488D01*
G01X5519Y16599D02*
G01X5519Y16328D01*
G01X5535Y16281D01*
G01X5567Y16265D01*
G01X5599Y16265D01*
G01X5471Y16488D02*
G01X5583Y16488D01*
G01X5783Y16488D02*
G01X5751Y16472D01*
G01X5720Y16440D01*
G01X5704Y16392D01*
G01X5704Y16360D01*
G01X5720Y16313D01*
G01X5751Y16281D01*
G01X5783Y16265D01*
G01X5831Y16265D01*
G01X5863Y16281D01*
G01X5895Y16313D01*
G01X5910Y16360D01*
G01X5910Y16392D01*
G01X5895Y16440D01*
G01X5863Y16472D01*
G01X5831Y16488D01*
G01X5783Y16488D01*
G01X6015Y16488D02*
G01X6015Y16265D01*
G01X6015Y16392D02*
G01X6031Y16440D01*
G01X6063Y16472D01*
G01X6095Y16488D01*
G01X6143Y16488D01*
G01X6493Y16488D02*
G01X6493Y16153D01*
G01X6493Y16440D02*
G01X6525Y16472D01*
G01X6556Y16488D01*
G01X6604Y16488D01*
G01X6636Y16472D01*
G01X6668Y16440D01*
G01X6684Y16392D01*
G01X6684Y16360D01*
G01X6668Y16313D01*
G01X6636Y16281D01*
G01X6604Y16265D01*
G01X6556Y16265D01*
G01X6525Y16281D01*
G01X6493Y16313D01*
G01X6868Y16488D02*
G01X6836Y16472D01*
G01X6805Y16440D01*
G01X6789Y16392D01*
G01X6789Y16360D01*
G01X6805Y16313D01*
G01X6836Y16281D01*
G01X6868Y16265D01*
G01X6916Y16265D01*
G01X6948Y16281D01*
G01X6980Y16313D01*
G01X6995Y16360D01*
G01X6995Y16392D01*
G01X6980Y16440D01*
G01X6948Y16472D01*
G01X6916Y16488D01*
G01X6868Y16488D01*
G01X7100Y16488D02*
G01X7164Y16265D01*
G01X7228Y16488D02*
G01X7164Y16265D01*
G01X7228Y16488D02*
G01X7291Y16265D01*
G01X7355Y16488D02*
G01X7291Y16265D01*
G01X7460Y16392D02*
G01X7651Y16392D01*
G01X7651Y16424D01*
G01X7635Y16456D01*
G01X7619Y16472D01*
G01X7587Y16488D01*
G01X7540Y16488D01*
G01X7508Y16472D01*
G01X7476Y16440D01*
G01X7460Y16392D01*
G01X7460Y16360D01*
G01X7476Y16313D01*
G01X7508Y16281D01*
G01X7540Y16265D01*
G01X7587Y16265D01*
G01X7619Y16281D01*
G01X7651Y16313D01*
G01X7756Y16488D02*
G01X7756Y16265D01*
G01X7756Y16392D02*
G01X7772Y16440D01*
G01X7804Y16472D01*
G01X7835Y16488D01*
G01X7883Y16488D01*
G01X6142Y4500D02*
G01X6142Y4214D01*
G01X6000Y4357D02*
G01X6286Y4357D01*
G01X13789Y1319D02*
G01X13773Y1351D01*
G01X13741Y1383D01*
G01X13709Y1399D01*
G01X13645Y1399D01*
G01X13614Y1383D01*
G01X13582Y1351D01*
G01X13566Y1319D01*
G01X13550Y1272D01*
G01X13550Y1192D01*
G01X13566Y1144D01*
G01X13582Y1113D01*
G01X13614Y1081D01*
G01X13645Y1065D01*
G01X13709Y1065D01*
G01X13741Y1081D01*
G01X13773Y1113D01*
G01X13789Y1144D01*
G01X13789Y1192D01*
G01X13709Y1192D02*
G01X13789Y1192D01*
G01X13894Y1399D02*
G01X13894Y1065D01*
G01X13894Y1399D02*
G01X14116Y1065D01*
G01X14116Y1399D02*
G01X14116Y1065D01*
G01X14221Y1399D02*
G01X14221Y1065D01*
G01X14221Y1399D02*
G01X14333Y1399D01*
G01X14380Y1383D01*
G01X14412Y1351D01*
G01X14428Y1319D01*
G01X14444Y1272D01*
G01X14444Y1192D01*
G01X14428Y1144D01*
G01X14412Y1113D01*
G01X14380Y1081D01*
G01X14333Y1065D01*
G01X14221Y1065D01*
G01X22800Y11690D02*
G01X22800Y11357D01*
G01X22800Y11690D02*
G01X22910Y11690D01*
G01X22959Y11675D01*
G01X22990Y11642D01*
G01X23006Y11611D01*
G01X23022Y11563D01*
G01X23022Y11484D01*
G01X23006Y11436D01*
G01X22990Y11405D01*
G01X22959Y11373D01*
G01X22910Y11357D01*
G01X22800Y11357D01*
G01X23286Y11690D02*
G01X23127Y11467D01*
G01X23365Y11467D01*
G01X23286Y11690D02*
G01X23286Y11357D01*
G01X22800Y10690D02*
G01X22800Y10357D01*
G01X22800Y10690D02*
G01X22910Y10690D01*
G01X22959Y10675D01*
G01X22990Y10642D01*
G01X23006Y10611D01*
G01X23022Y10563D01*
G01X23022Y10484D01*
G01X23006Y10436D01*
G01X22990Y10405D01*
G01X22959Y10373D01*
G01X22910Y10357D01*
G01X22800Y10357D01*
G01X23318Y10690D02*
G01X23160Y10690D01*
G01X23143Y10548D01*
G01X23160Y10563D01*
G01X23206Y10580D01*
G01X23255Y10580D01*
G01X23302Y10563D01*
G01X23335Y10532D01*
G01X23350Y10484D01*
G01X23350Y10451D01*
G01X23335Y10405D01*
G01X23302Y10373D01*
G01X23255Y10357D01*
G01X23206Y10357D01*
G01X23160Y10373D01*
G01X23143Y10388D01*
G01X23127Y10419D01*
G01X22800Y3090D02*
G01X22800Y2757D01*
G01X22800Y3090D02*
G01X22910Y3090D01*
G01X22959Y3075D01*
G01X22990Y3042D01*
G01X23006Y3011D01*
G01X23022Y2963D01*
G01X23022Y2884D01*
G01X23006Y2836D01*
G01X22990Y2805D01*
G01X22959Y2773D01*
G01X22910Y2757D01*
G01X22800Y2757D01*
G01X23318Y3042D02*
G01X23302Y3075D01*
G01X23255Y3090D01*
G01X23222Y3090D01*
G01X23175Y3075D01*
G01X23143Y3026D01*
G01X23127Y2948D01*
G01X23127Y2867D01*
G01X23143Y2805D01*
G01X23175Y2773D01*
G01X23222Y2757D01*
G01X23239Y2757D01*
G01X23286Y2773D01*
G01X23318Y2805D01*
G01X23335Y2851D01*
G01X23335Y2867D01*
G01X23318Y2915D01*
G01X23286Y2948D01*
G01X23239Y2963D01*
G01X23222Y2963D01*
G01X23175Y2948D01*
G01X23143Y2915D01*
G01X23127Y2867D01*
G01X22800Y2090D02*
G01X22800Y1757D01*
G01X22800Y2090D02*
G01X22910Y2090D01*
G01X22959Y2075D01*
G01X22990Y2042D01*
G01X23006Y2011D01*
G01X23022Y1963D01*
G01X23022Y1884D01*
G01X23006Y1836D01*
G01X22990Y1805D01*
G01X22959Y1773D01*
G01X22910Y1757D01*
G01X22800Y1757D01*
G01X23350Y2090D02*
G01X23190Y1757D01*
G01X23127Y2090D02*
G01X23350Y2090D01*
G01X18500Y8700D02*
G01X18500Y8366D01*
G01X18500Y8700D02*
G01X18610Y8700D01*
G01X18659Y8684D01*
G01X18690Y8652D01*
G01X18706Y8620D01*
G01X18722Y8573D01*
G01X18722Y8493D01*
G01X18706Y8445D01*
G01X18690Y8414D01*
G01X18659Y8382D01*
G01X18610Y8366D01*
G01X18500Y8366D01*
G01X18906Y8700D02*
G01X18860Y8684D01*
G01X18843Y8652D01*
G01X18843Y8620D01*
G01X18860Y8589D01*
G01X18890Y8573D01*
G01X18955Y8557D01*
G01X19002Y8541D01*
G01X19035Y8509D01*
G01X19050Y8477D01*
G01X19050Y8429D01*
G01X19035Y8398D01*
G01X19018Y8382D01*
G01X18971Y8366D01*
G01X18906Y8366D01*
G01X18860Y8382D01*
G01X18843Y8398D01*
G01X18827Y8429D01*
G01X18827Y8477D01*
G01X18843Y8509D01*
G01X18875Y8541D01*
G01X18922Y8557D01*
G01X18986Y8573D01*
G01X19018Y8589D01*
G01X19035Y8620D01*
G01X19035Y8652D01*
G01X19018Y8684D01*
G01X18971Y8700D01*
G01X18906Y8700D01*
G01X6500Y14336D02*
G01X6500Y14002D01*
G01X6500Y14336D02*
G01X6642Y14336D01*
G01X6690Y14320D01*
G01X6707Y14304D01*
G01X6723Y14272D01*
G01X6723Y14240D01*
G01X6707Y14209D01*
G01X6690Y14193D01*
G01X6642Y14177D01*
G01X6500Y14177D01*
G01X6611Y14177D02*
G01X6723Y14002D01*
G01X7050Y14288D02*
G01X7019Y14320D01*
G01X6971Y14336D01*
G01X6907Y14336D01*
G01X6859Y14320D01*
G01X6828Y14288D01*
G01X6828Y14256D01*
G01X6844Y14225D01*
G01X6859Y14209D01*
G01X6890Y14193D01*
G01X6986Y14161D01*
G01X7019Y14145D01*
G01X7034Y14129D01*
G01X7050Y14097D01*
G01X7050Y14050D01*
G01X7019Y14018D01*
G01X6971Y14002D01*
G01X6907Y14002D01*
G01X6859Y14018D01*
G01X6828Y14050D01*
G01X7267Y14336D02*
G01X7267Y14002D01*
G01X7155Y14336D02*
G01X7378Y14336D01*
G01X7769Y14400D02*
G01X7482Y13890D01*
G01X7875Y14336D02*
G01X7875Y14002D01*
G01X7875Y14336D02*
G01X7986Y14336D01*
G01X8034Y14320D01*
G01X8065Y14288D01*
G01X8080Y14256D01*
G01X8096Y14209D01*
G01X8096Y14129D01*
G01X8080Y14081D01*
G01X8065Y14050D01*
G01X8034Y14018D01*
G01X7986Y14002D01*
G01X7875Y14002D01*
G01X8201Y14272D02*
G01X8234Y14288D01*
G01X8282Y14336D01*
G01X8282Y14002D01*
G01X8419Y14336D02*
G01X8594Y14336D01*
G01X8498Y14209D01*
G01X8546Y14209D01*
G01X8578Y14193D01*
G01X8594Y14177D01*
G01X8609Y14129D01*
G01X8609Y14097D01*
G01X8594Y14050D01*
G01X8561Y14018D01*
G01X8513Y14002D01*
G01X8465Y14002D01*
G01X8419Y14018D01*
G01X8403Y14034D01*
G01X8386Y14065D01*
G01X27864Y3536D02*
G01X27847Y3568D01*
G01X27800Y3616D01*
G01X28134Y3616D01*
G01X27800Y3721D02*
G01X28134Y3721D01*
G01X27800Y3721D02*
G01X27800Y3864D01*
G01X27815Y3911D01*
G01X27831Y3927D01*
G01X27864Y3943D01*
G01X27896Y3943D01*
G01X27927Y3927D01*
G01X27943Y3911D01*
G01X27959Y3864D01*
G01X27959Y3721D02*
G01X27959Y3864D01*
G01X27975Y3911D01*
G01X27990Y3927D01*
G01X28022Y3943D01*
G01X28071Y3943D01*
G01X28102Y3927D01*
G01X28118Y3911D01*
G01X28134Y3864D01*
G01X28134Y3721D01*
G01X27864Y4538D02*
G01X27847Y4570D01*
G01X27800Y4618D01*
G01X28134Y4618D01*
G01X27800Y4850D02*
G01X28134Y4723D01*
G01X27800Y4850D02*
G01X28134Y4977D01*
G01X28022Y4771D02*
G01X28022Y4930D01*
G01X27880Y5588D02*
G01X27864Y5588D01*
G01X27831Y5604D01*
G01X27815Y5620D01*
G01X27800Y5652D01*
G01X27800Y5716D01*
G01X27815Y5747D01*
G01X27831Y5763D01*
G01X27864Y5779D01*
G01X27896Y5779D01*
G01X27927Y5763D01*
G01X27975Y5731D01*
G01X28134Y5572D01*
G01X28134Y5795D01*
G01X27800Y6027D02*
G01X28134Y5900D01*
G01X27800Y6027D02*
G01X28134Y6155D01*
G01X28022Y5948D02*
G01X28022Y6107D01*
G01X27880Y6766D02*
G01X27864Y6766D01*
G01X27831Y6781D01*
G01X27815Y6797D01*
G01X27800Y6829D01*
G01X27800Y6893D01*
G01X27815Y6925D01*
G01X27831Y6941D01*
G01X27864Y6956D01*
G01X27896Y6956D01*
G01X27927Y6941D01*
G01X27975Y6909D01*
G01X28134Y6750D01*
G01X28134Y6972D01*
G01X27800Y7077D02*
G01X28134Y7077D01*
G01X27800Y7077D02*
G01X27800Y7221D01*
G01X27815Y7268D01*
G01X27831Y7284D01*
G01X27864Y7300D01*
G01X27896Y7300D01*
G01X27927Y7284D01*
G01X27943Y7268D01*
G01X27959Y7221D01*
G01X27959Y7077D02*
G01X27959Y7221D01*
G01X27975Y7268D01*
G01X27990Y7284D01*
G01X28022Y7300D01*
G01X28071Y7300D01*
G01X28102Y7284D01*
G01X28118Y7268D01*
G01X28134Y7221D01*
G01X28134Y7077D01*
G01X27864Y12036D02*
G01X27848Y12068D01*
G01X27800Y12116D01*
G01X28134Y12116D01*
G01X27800Y12221D02*
G01X28134Y12221D01*
G01X27800Y12221D02*
G01X27800Y12364D01*
G01X27816Y12411D01*
G01X27832Y12427D01*
G01X27864Y12443D01*
G01X27896Y12443D01*
G01X27927Y12427D01*
G01X27943Y12411D01*
G01X27959Y12364D01*
G01X27959Y12221D02*
G01X27959Y12364D01*
G01X27975Y12411D01*
G01X27991Y12427D01*
G01X28023Y12443D01*
G01X28071Y12443D01*
G01X28102Y12427D01*
G01X28118Y12411D01*
G01X28134Y12364D01*
G01X28134Y12221D01*
G01X27864Y13038D02*
G01X27848Y13070D01*
G01X27800Y13118D01*
G01X28134Y13118D01*
G01X27800Y13350D02*
G01X28134Y13223D01*
G01X27800Y13350D02*
G01X28134Y13477D01*
G01X28023Y13271D02*
G01X28023Y13430D01*
G01X27880Y14088D02*
G01X27864Y14088D01*
G01X27832Y14104D01*
G01X27816Y14120D01*
G01X27800Y14152D01*
G01X27800Y14216D01*
G01X27816Y14247D01*
G01X27832Y14263D01*
G01X27864Y14279D01*
G01X27896Y14279D01*
G01X27927Y14263D01*
G01X27975Y14231D01*
G01X28134Y14072D01*
G01X28134Y14295D01*
G01X27800Y14527D02*
G01X28134Y14400D01*
G01X27800Y14527D02*
G01X28134Y14655D01*
G01X28023Y14448D02*
G01X28023Y14607D01*
G01X27880Y15266D02*
G01X27864Y15266D01*
G01X27832Y15281D01*
G01X27816Y15297D01*
G01X27800Y15329D01*
G01X27800Y15393D01*
G01X27816Y15425D01*
G01X27832Y15441D01*
G01X27864Y15456D01*
G01X27896Y15456D01*
G01X27927Y15441D01*
G01X27975Y15409D01*
G01X28134Y15250D01*
G01X28134Y15472D01*
G01X27800Y15577D02*
G01X28134Y15577D01*
G01X27800Y15577D02*
G01X27800Y15721D01*
G01X27816Y15768D01*
G01X27832Y15784D01*
G01X27864Y15800D01*
G01X27896Y15800D01*
G01X27927Y15784D01*
G01X27943Y15768D01*
G01X27959Y15721D01*
G01X27959Y15577D02*
G01X27959Y15721D01*
G01X27975Y15768D01*
G01X27991Y15784D01*
G01X28023Y15800D01*
G01X28071Y15800D01*
G01X28102Y15784D01*
G01X28118Y15768D01*
G01X28134Y15721D01*
G01X28134Y15577D01*
G01X13039Y18119D02*
G01X13023Y18152D01*
G01X12991Y18184D01*
G01X12959Y18200D01*
G01X12895Y18200D01*
G01X12864Y18184D01*
G01X12832Y18152D01*
G01X12816Y18119D01*
G01X12800Y18073D01*
G01X12800Y17992D01*
G01X12816Y17944D01*
G01X12832Y17913D01*
G01X12864Y17882D01*
G01X12895Y17865D01*
G01X12959Y17865D01*
G01X12991Y17882D01*
G01X13023Y17913D01*
G01X13039Y17944D01*
G01X13039Y17992D01*
G01X12959Y17992D02*
G01X13039Y17992D01*
G01X13144Y18200D02*
G01X13144Y17865D01*
G01X13144Y18200D02*
G01X13366Y17865D01*
G01X13366Y18200D02*
G01X13366Y17865D01*
G01X13471Y18200D02*
G01X13471Y17865D01*
G01X13471Y18200D02*
G01X13583Y18200D01*
G01X13630Y18184D01*
G01X13662Y18152D01*
G01X13678Y18119D01*
G01X13694Y18073D01*
G01X13694Y17992D01*
G01X13678Y17944D01*
G01X13662Y17913D01*
G01X13630Y17882D01*
G01X13583Y17865D01*
G01X13471Y17865D01*
G01X16630Y15810D02*
G01X16614Y15810D01*
G01X16582Y15826D01*
G01X16566Y15842D01*
G01X16550Y15874D01*
G01X16550Y15937D01*
G01X16566Y15969D01*
G01X16582Y15985D01*
G01X16614Y16001D01*
G01X16646Y16001D01*
G01X16677Y15985D01*
G01X16725Y15953D01*
G01X16884Y15794D01*
G01X16884Y16017D01*
G01X16630Y16138D02*
G01X16614Y16138D01*
G01X16582Y16154D01*
G01X16566Y16169D01*
G01X16550Y16201D01*
G01X16550Y16265D01*
G01X16566Y16297D01*
G01X16582Y16313D01*
G01X16614Y16329D01*
G01X16646Y16329D01*
G01X16677Y16313D01*
G01X16725Y16281D01*
G01X16884Y16122D01*
G01X16884Y16344D01*
G01X16550Y16545D02*
G01X16566Y16497D01*
G01X16614Y16465D01*
G01X16693Y16449D01*
G01X16741Y16449D01*
G01X16821Y16465D01*
G01X16868Y16497D01*
G01X16884Y16545D01*
G01X16884Y16577D01*
G01X16868Y16624D01*
G01X16821Y16656D01*
G01X16741Y16672D01*
G01X16693Y16672D01*
G01X16614Y16656D01*
G01X16566Y16624D01*
G01X16550Y16577D01*
G01X16550Y16545D01*
G01X16550Y16777D02*
G01X16884Y16777D01*
G01X16550Y16777D02*
G01X16550Y16920D01*
G01X16566Y16968D01*
G01X16582Y16984D01*
G01X16614Y17000D01*
G01X16646Y17000D01*
G01X16677Y16984D01*
G01X16693Y16968D01*
G01X16709Y16920D01*
G01X16709Y16777D01*
G01X16709Y16889D02*
G01X16884Y17000D01*
G01X14614Y16015D02*
G01X14598Y16047D01*
G01X14550Y16095D01*
G01X14884Y16095D01*
G01X14550Y16295D02*
G01X14566Y16247D01*
G01X14614Y16215D01*
G01X14693Y16200D01*
G01X14741Y16200D01*
G01X14821Y16215D01*
G01X14868Y16247D01*
G01X14884Y16295D01*
G01X14884Y16327D01*
G01X14868Y16375D01*
G01X14821Y16406D01*
G01X14741Y16422D01*
G01X14693Y16422D01*
G01X14614Y16406D01*
G01X14566Y16375D01*
G01X14550Y16327D01*
G01X14550Y16295D01*
G01X14550Y16527D02*
G01X14884Y16527D01*
G01X14550Y16750D02*
G01X14773Y16527D01*
G01X14693Y16607D02*
G01X14884Y16750D01*
G01X15614Y16143D02*
G01X15598Y16175D01*
G01X15550Y16223D01*
G01X15884Y16223D01*
G01X15550Y16328D02*
G01X15884Y16328D01*
G01X15550Y16550D02*
G01X15773Y16328D01*
G01X15693Y16407D02*
G01X15884Y16550D01*
G01X5900Y6021D02*
G01X5900Y5634D01*
G01X5900Y6021D02*
G01X6065Y6021D01*
G01X6121Y6003D01*
G01X6140Y5984D01*
G01X6157Y5946D01*
G01X6157Y5892D01*
G01X6140Y5855D01*
G01X6121Y5836D01*
G01X6065Y5817D01*
G01X5900Y5817D01*
G01X6280Y5892D02*
G01X6280Y5634D01*
G01X6280Y5782D02*
G01X6298Y5836D01*
G01X6334Y5873D01*
G01X6371Y5892D01*
G01X6426Y5892D01*
G01X6640Y5892D02*
G01X6603Y5873D01*
G01X6567Y5836D01*
G01X6548Y5782D01*
G01X6548Y5744D01*
G01X6567Y5688D01*
G01X6603Y5653D01*
G01X6640Y5634D01*
G01X6696Y5634D01*
G01X6732Y5653D01*
G01X6769Y5688D01*
G01X6788Y5744D01*
G01X6788Y5782D01*
G01X6769Y5836D01*
G01X6732Y5873D01*
G01X6696Y5892D01*
G01X6640Y5892D01*
G01X7194Y6021D02*
G01X7194Y5634D01*
G01X7194Y6021D02*
G01X7340Y5634D01*
G01X7488Y6021D02*
G01X7340Y5634D01*
G01X7488Y6021D02*
G01X7488Y5634D01*
G01X7611Y6021D02*
G01X7628Y6003D01*
G01X7646Y6021D01*
G01X7628Y6040D01*
G01X7611Y6021D01*
G01X7628Y5892D02*
G01X7628Y5634D01*
G01X7990Y5836D02*
G01X7953Y5873D01*
G01X7915Y5892D01*
G01X7861Y5892D01*
G01X7823Y5873D01*
G01X7786Y5836D01*
G01X7769Y5782D01*
G01X7769Y5744D01*
G01X7786Y5688D01*
G01X7823Y5653D01*
G01X7861Y5634D01*
G01X7915Y5634D01*
G01X7953Y5653D01*
G01X7990Y5688D01*
G01X8111Y5892D02*
G01X8111Y5634D01*
G01X8111Y5782D02*
G01X8130Y5836D01*
G01X8167Y5873D01*
G01X8203Y5892D01*
G01X8259Y5892D01*
G01X8473Y5892D02*
G01X8436Y5873D01*
G01X8398Y5836D01*
G01X8380Y5782D01*
G01X8380Y5744D01*
G01X8398Y5688D01*
G01X8436Y5653D01*
G01X8473Y5634D01*
G01X8528Y5634D01*
G01X8565Y5653D01*
G01X8601Y5688D01*
G01X8621Y5744D01*
G01X8621Y5782D01*
G01X8601Y5836D01*
G01X8565Y5873D01*
G01X8528Y5892D01*
G01X8473Y5892D01*
G01X20700Y16717D02*
G01X20700Y16336D01*
G01X20700Y16717D02*
G01X20844Y16336D01*
G01X20990Y16717D02*
G01X20844Y16336D01*
G01X20990Y16717D02*
G01X20990Y16336D01*
G01X21364Y16663D02*
G01X21328Y16700D01*
G01X21275Y16717D01*
G01X21202Y16717D01*
G01X21147Y16700D01*
G01X21110Y16663D01*
G01X21110Y16627D01*
G01X21128Y16590D01*
G01X21147Y16573D01*
G01X21184Y16555D01*
G01X21293Y16517D01*
G01X21328Y16500D01*
G01X21347Y16482D01*
G01X21364Y16444D01*
G01X21364Y16390D01*
G01X21328Y16355D01*
G01X21275Y16336D01*
G01X21202Y16336D01*
G01X21147Y16355D01*
G01X21110Y16390D01*
G01X21485Y16644D02*
G01X21522Y16663D01*
G01X21576Y16717D01*
G01X21576Y16336D01*
G01X20700Y15717D02*
G01X20700Y15336D01*
G01X20700Y15717D02*
G01X20844Y15336D01*
G01X20990Y15717D02*
G01X20844Y15336D01*
G01X20990Y15717D02*
G01X20990Y15336D01*
G01X21364Y15663D02*
G01X21328Y15700D01*
G01X21275Y15717D01*
G01X21202Y15717D01*
G01X21147Y15700D01*
G01X21110Y15663D01*
G01X21110Y15626D01*
G01X21128Y15590D01*
G01X21147Y15573D01*
G01X21184Y15555D01*
G01X21293Y15517D01*
G01X21328Y15500D01*
G01X21347Y15482D01*
G01X21364Y15444D01*
G01X21364Y15390D01*
G01X21328Y15355D01*
G01X21275Y15336D01*
G01X21202Y15336D01*
G01X21147Y15355D01*
G01X21110Y15390D01*
G01X21503Y15626D02*
G01X21503Y15644D01*
G01X21522Y15682D01*
G01X21539Y15700D01*
G01X21576Y15717D01*
G01X21648Y15717D01*
G01X21685Y15700D01*
G01X21703Y15682D01*
G01X21722Y15644D01*
G01X21722Y15609D01*
G01X21703Y15573D01*
G01X21667Y15517D01*
G01X21485Y15336D01*
G01X21739Y15336D01*
G01X20700Y14717D02*
G01X20700Y14336D01*
G01X20700Y14717D02*
G01X20844Y14336D01*
G01X20990Y14717D02*
G01X20844Y14336D01*
G01X20990Y14717D02*
G01X20990Y14336D01*
G01X21364Y14663D02*
G01X21328Y14700D01*
G01X21275Y14717D01*
G01X21202Y14717D01*
G01X21147Y14700D01*
G01X21110Y14663D01*
G01X21110Y14626D01*
G01X21128Y14590D01*
G01X21147Y14573D01*
G01X21184Y14555D01*
G01X21293Y14517D01*
G01X21328Y14500D01*
G01X21347Y14482D01*
G01X21364Y14444D01*
G01X21364Y14390D01*
G01X21328Y14355D01*
G01X21275Y14336D01*
G01X21202Y14336D01*
G01X21147Y14355D01*
G01X21110Y14390D01*
G01X21522Y14717D02*
G01X21722Y14717D01*
G01X21613Y14573D01*
G01X21667Y14573D01*
G01X21703Y14555D01*
G01X21722Y14536D01*
G01X21739Y14482D01*
G01X21739Y14444D01*
G01X21722Y14390D01*
G01X21685Y14355D01*
G01X21631Y14336D01*
G01X21576Y14336D01*
G01X21522Y14355D01*
G01X21503Y14373D01*
G01X21485Y14409D01*
G01X20955Y11663D02*
G01X20918Y11700D01*
G01X20864Y11717D01*
G01X20790Y11717D01*
G01X20735Y11700D01*
G01X20700Y11663D01*
G01X20700Y11626D01*
G01X20718Y11590D01*
G01X20735Y11573D01*
G01X20772Y11555D01*
G01X20881Y11517D01*
G01X20918Y11500D01*
G01X20935Y11482D01*
G01X20955Y11444D01*
G01X20955Y11390D01*
G01X20918Y11355D01*
G01X20864Y11336D01*
G01X20790Y11336D01*
G01X20735Y11355D01*
G01X20700Y11390D01*
G01X21202Y11717D02*
G01X21202Y11336D01*
G01X21075Y11717D02*
G01X21328Y11717D01*
G01X21448Y11717D02*
G01X21448Y11336D01*
G01X21448Y11717D02*
G01X21685Y11717D01*
G01X21448Y11536D02*
G01X21594Y11536D01*
G01X21448Y11336D02*
G01X21685Y11336D01*
G01X21805Y11717D02*
G01X21805Y11336D01*
G01X21805Y11717D02*
G01X21968Y11717D01*
G01X22023Y11700D01*
G01X22042Y11682D01*
G01X22060Y11644D01*
G01X22060Y11590D01*
G01X22042Y11555D01*
G01X22023Y11536D01*
G01X21968Y11517D01*
G01X21805Y11517D01*
G01X20700Y10717D02*
G01X20700Y10336D01*
G01X20700Y10717D02*
G01X20827Y10717D01*
G01X20881Y10700D01*
G01X20918Y10663D01*
G01X20935Y10626D01*
G01X20955Y10573D01*
G01X20955Y10482D01*
G01X20935Y10426D01*
G01X20918Y10390D01*
G01X20881Y10355D01*
G01X20827Y10336D01*
G01X20700Y10336D01*
G01X21075Y10717D02*
G01X21075Y10336D01*
G01X21194Y10717D02*
G01X21194Y10336D01*
G01X21194Y10717D02*
G01X21357Y10717D01*
G01X21413Y10700D01*
G01X21431Y10682D01*
G01X21448Y10644D01*
G01X21448Y10609D01*
G01X21431Y10573D01*
G01X21413Y10555D01*
G01X21357Y10536D01*
G01X21194Y10536D01*
G01X21322Y10536D02*
G01X21448Y10336D01*
G01X24072Y10626D02*
G01X24055Y10663D01*
G01X24018Y10700D01*
G01X23981Y10717D01*
G01X23909Y10717D01*
G01X23872Y10700D01*
G01X23835Y10663D01*
G01X23818Y10626D01*
G01X23800Y10573D01*
G01X23800Y10482D01*
G01X23818Y10426D01*
G01X23835Y10390D01*
G01X23872Y10355D01*
G01X23909Y10336D01*
G01X23981Y10336D01*
G01X24018Y10355D01*
G01X24055Y10390D01*
G01X24072Y10426D01*
G01X24072Y10482D01*
G01X23981Y10482D02*
G01X24072Y10482D01*
G01X24193Y10717D02*
G01X24193Y10336D01*
G01X24193Y10717D02*
G01X24447Y10336D01*
G01X24447Y10717D02*
G01X24447Y10336D01*
G01X24567Y10717D02*
G01X24567Y10336D01*
G01X24567Y10717D02*
G01X24694Y10717D01*
G01X24748Y10700D01*
G01X24785Y10663D01*
G01X24803Y10626D01*
G01X24822Y10573D01*
G01X24822Y10482D01*
G01X24803Y10426D01*
G01X24785Y10390D01*
G01X24748Y10355D01*
G01X24694Y10336D01*
G01X24567Y10336D01*
G01X23800Y11717D02*
G01X23944Y11336D01*
G01X24090Y11717D02*
G01X23944Y11336D01*
G01X24210Y11717D02*
G01X24210Y11336D01*
G01X24210Y11717D02*
G01X24338Y11717D01*
G01X24393Y11700D01*
G01X24428Y11663D01*
G01X24447Y11626D01*
G01X24464Y11573D01*
G01X24464Y11482D01*
G01X24447Y11426D01*
G01X24428Y11390D01*
G01X24393Y11355D01*
G01X24338Y11336D01*
G01X24210Y11336D01*
G01X24585Y11717D02*
G01X24585Y11336D01*
G01X24585Y11717D02*
G01X24713Y11717D01*
G01X24767Y11700D01*
G01X24803Y11663D01*
G01X24822Y11626D01*
G01X24839Y11573D01*
G01X24839Y11482D01*
G01X24822Y11426D01*
G01X24803Y11390D01*
G01X24767Y11355D01*
G01X24713Y11336D01*
G01X24585Y11336D01*
G01X23800Y12644D02*
G01X23835Y12663D01*
G01X23890Y12717D01*
G01X23890Y12336D01*
G01X24010Y12717D02*
G01X24010Y12336D01*
G01X24010Y12717D02*
G01X24175Y12717D01*
G01X24228Y12700D01*
G01X24247Y12682D01*
G01X24264Y12644D01*
G01X24264Y12609D01*
G01X24247Y12573D01*
G01X24228Y12555D01*
G01X24175Y12536D01*
G01X24010Y12536D02*
G01X24175Y12536D01*
G01X24228Y12517D01*
G01X24247Y12500D01*
G01X24264Y12463D01*
G01X24264Y12409D01*
G01X24247Y12373D01*
G01X24228Y12355D01*
G01X24175Y12336D01*
G01X24010Y12336D01*
G01X23800Y13644D02*
G01X23835Y13663D01*
G01X23890Y13717D01*
G01X23890Y13336D01*
G01X24156Y13717D02*
G01X24010Y13336D01*
G01X24156Y13717D02*
G01X24302Y13336D01*
G01X24064Y13463D02*
G01X24247Y13463D01*
G01X23818Y14626D02*
G01X23818Y14644D01*
G01X23835Y14682D01*
G01X23855Y14700D01*
G01X23890Y14717D01*
G01X23964Y14717D01*
G01X24000Y14700D01*
G01X24018Y14682D01*
G01X24035Y14644D01*
G01X24035Y14609D01*
G01X24018Y14573D01*
G01X23981Y14517D01*
G01X23800Y14336D01*
G01X24055Y14336D01*
G01X24319Y14717D02*
G01X24175Y14336D01*
G01X24319Y14717D02*
G01X24464Y14336D01*
G01X24228Y14463D02*
G01X24410Y14463D01*
G01X23818Y15626D02*
G01X23818Y15644D01*
G01X23835Y15682D01*
G01X23855Y15700D01*
G01X23890Y15717D01*
G01X23964Y15717D01*
G01X24000Y15700D01*
G01X24018Y15682D01*
G01X24035Y15644D01*
G01X24035Y15609D01*
G01X24018Y15573D01*
G01X23981Y15517D01*
G01X23800Y15336D01*
G01X24055Y15336D01*
G01X24175Y15717D02*
G01X24175Y15336D01*
G01X24175Y15717D02*
G01X24338Y15717D01*
G01X24393Y15700D01*
G01X24410Y15682D01*
G01X24428Y15644D01*
G01X24428Y15609D01*
G01X24410Y15573D01*
G01X24393Y15555D01*
G01X24338Y15536D01*
G01X24175Y15536D02*
G01X24338Y15536D01*
G01X24393Y15517D01*
G01X24410Y15500D01*
G01X24428Y15463D01*
G01X24428Y15409D01*
G01X24410Y15373D01*
G01X24393Y15355D01*
G01X24338Y15336D01*
G01X24175Y15336D01*
G01X24072Y16627D02*
G01X24055Y16663D01*
G01X24018Y16700D01*
G01X23981Y16717D01*
G01X23909Y16717D01*
G01X23872Y16700D01*
G01X23835Y16663D01*
G01X23818Y16627D01*
G01X23800Y16573D01*
G01X23800Y16482D01*
G01X23818Y16427D01*
G01X23835Y16390D01*
G01X23872Y16355D01*
G01X23909Y16336D01*
G01X23981Y16336D01*
G01X24018Y16355D01*
G01X24055Y16390D01*
G01X24072Y16427D01*
G01X24072Y16482D01*
G01X23981Y16482D02*
G01X24072Y16482D01*
G01X24193Y16717D02*
G01X24193Y16336D01*
G01X24193Y16717D02*
G01X24447Y16336D01*
G01X24447Y16717D02*
G01X24447Y16336D01*
G01X24567Y16717D02*
G01X24567Y16336D01*
G01X24567Y16717D02*
G01X24694Y16717D01*
G01X24748Y16700D01*
G01X24785Y16663D01*
G01X24803Y16627D01*
G01X24822Y16573D01*
G01X24822Y16482D01*
G01X24803Y16427D01*
G01X24785Y16390D01*
G01X24748Y16355D01*
G01X24694Y16336D01*
G01X24567Y16336D01*
G01X23400Y17717D02*
G01X23544Y17336D01*
G01X23690Y17717D02*
G01X23544Y17336D01*
G01X23810Y17717D02*
G01X23810Y17336D01*
G01X23810Y17717D02*
G01X23956Y17336D01*
G01X24102Y17717D02*
G01X23956Y17336D01*
G01X24102Y17717D02*
G01X24102Y17336D01*
G01X24331Y17717D02*
G01X24294Y17700D01*
G01X24257Y17663D01*
G01X24239Y17627D01*
G01X24222Y17573D01*
G01X24222Y17482D01*
G01X24239Y17427D01*
G01X24257Y17390D01*
G01X24294Y17355D01*
G01X24331Y17336D01*
G01X24403Y17336D01*
G01X24439Y17355D01*
G01X24476Y17390D01*
G01X24494Y17427D01*
G01X24513Y17482D01*
G01X24513Y17573D01*
G01X24494Y17627D01*
G01X24476Y17663D01*
G01X24439Y17700D01*
G01X24403Y17717D01*
G01X24331Y17717D01*
G01X24760Y17717D02*
G01X24760Y17336D01*
G01X24632Y17717D02*
G01X24886Y17717D01*
G01X20700Y17717D02*
G01X20700Y17336D01*
G01X20700Y17717D02*
G01X20935Y17717D01*
G01X20700Y17536D02*
G01X20844Y17536D01*
G01X20700Y17336D02*
G01X20935Y17336D01*
G01X21056Y17717D02*
G01X21056Y17336D01*
G01X21056Y17717D02*
G01X21310Y17336D01*
G01X21310Y17717D02*
G01X21310Y17336D01*
G01X20700Y13717D02*
G01X20700Y13336D01*
G01X20700Y13717D02*
G01X20864Y13717D01*
G01X20918Y13700D01*
G01X20935Y13682D01*
G01X20955Y13644D01*
G01X20955Y13609D01*
G01X20935Y13573D01*
G01X20918Y13555D01*
G01X20864Y13536D01*
G01X20700Y13536D01*
G01X20827Y13536D02*
G01X20955Y13336D01*
G01X21328Y13663D02*
G01X21293Y13700D01*
G01X21238Y13717D01*
G01X21164Y13717D01*
G01X21110Y13700D01*
G01X21075Y13663D01*
G01X21075Y13626D01*
G01X21093Y13590D01*
G01X21110Y13573D01*
G01X21147Y13555D01*
G01X21256Y13517D01*
G01X21293Y13500D01*
G01X21310Y13482D01*
G01X21328Y13444D01*
G01X21328Y13390D01*
G01X21293Y13355D01*
G01X21238Y13336D01*
G01X21164Y13336D01*
G01X21110Y13355D01*
G01X21075Y13390D01*
G01X21576Y13717D02*
G01X21576Y13336D01*
G01X21448Y13717D02*
G01X21703Y13717D01*
G01X20955Y12663D02*
G01X20918Y12700D01*
G01X20864Y12717D01*
G01X20790Y12717D01*
G01X20735Y12700D01*
G01X20700Y12663D01*
G01X20700Y12626D01*
G01X20718Y12590D01*
G01X20735Y12573D01*
G01X20772Y12555D01*
G01X20881Y12517D01*
G01X20918Y12500D01*
G01X20935Y12482D01*
G01X20955Y12444D01*
G01X20955Y12390D01*
G01X20918Y12355D01*
G01X20864Y12336D01*
G01X20790Y12336D01*
G01X20735Y12355D01*
G01X20700Y12390D01*
G01X21075Y12717D02*
G01X21075Y12336D01*
G01X21075Y12336D02*
G01X21293Y12336D01*
G01X21413Y12717D02*
G01X21413Y12336D01*
G01X21413Y12717D02*
G01X21576Y12717D01*
G01X21631Y12700D01*
G01X21648Y12682D01*
G01X21667Y12644D01*
G01X21667Y12590D01*
G01X21648Y12555D01*
G01X21631Y12536D01*
G01X21576Y12517D01*
G01X21413Y12517D01*
G01X20700Y8117D02*
G01X20700Y7736D01*
G01X20700Y8117D02*
G01X20844Y7736D01*
G01X20990Y8117D02*
G01X20844Y7736D01*
G01X20990Y8117D02*
G01X20990Y7736D01*
G01X21364Y8063D02*
G01X21328Y8100D01*
G01X21275Y8117D01*
G01X21202Y8117D01*
G01X21147Y8100D01*
G01X21110Y8063D01*
G01X21110Y8026D01*
G01X21128Y7990D01*
G01X21147Y7973D01*
G01X21184Y7955D01*
G01X21293Y7917D01*
G01X21328Y7900D01*
G01X21347Y7882D01*
G01X21364Y7844D01*
G01X21364Y7790D01*
G01X21328Y7755D01*
G01X21275Y7736D01*
G01X21202Y7736D01*
G01X21147Y7755D01*
G01X21110Y7790D01*
G01X21485Y8044D02*
G01X21522Y8063D01*
G01X21576Y8117D01*
G01X21576Y7736D01*
G01X20700Y7117D02*
G01X20700Y6736D01*
G01X20700Y7117D02*
G01X20844Y6736D01*
G01X20990Y7117D02*
G01X20844Y6736D01*
G01X20990Y7117D02*
G01X20990Y6736D01*
G01X21364Y7063D02*
G01X21328Y7100D01*
G01X21275Y7117D01*
G01X21202Y7117D01*
G01X21147Y7100D01*
G01X21110Y7063D01*
G01X21110Y7026D01*
G01X21128Y6990D01*
G01X21147Y6973D01*
G01X21184Y6955D01*
G01X21293Y6917D01*
G01X21328Y6900D01*
G01X21347Y6882D01*
G01X21364Y6844D01*
G01X21364Y6790D01*
G01X21328Y6755D01*
G01X21275Y6736D01*
G01X21202Y6736D01*
G01X21147Y6755D01*
G01X21110Y6790D01*
G01X21503Y7026D02*
G01X21503Y7044D01*
G01X21522Y7082D01*
G01X21539Y7100D01*
G01X21576Y7117D01*
G01X21648Y7117D01*
G01X21685Y7100D01*
G01X21703Y7082D01*
G01X21722Y7044D01*
G01X21722Y7009D01*
G01X21703Y6973D01*
G01X21667Y6917D01*
G01X21485Y6736D01*
G01X21739Y6736D01*
G01X20700Y6117D02*
G01X20700Y5736D01*
G01X20700Y6117D02*
G01X20844Y5736D01*
G01X20990Y6117D02*
G01X20844Y5736D01*
G01X20990Y6117D02*
G01X20990Y5736D01*
G01X21364Y6063D02*
G01X21328Y6100D01*
G01X21275Y6117D01*
G01X21202Y6117D01*
G01X21147Y6100D01*
G01X21110Y6063D01*
G01X21110Y6026D01*
G01X21128Y5990D01*
G01X21147Y5973D01*
G01X21184Y5955D01*
G01X21293Y5917D01*
G01X21328Y5900D01*
G01X21347Y5882D01*
G01X21364Y5844D01*
G01X21364Y5790D01*
G01X21328Y5755D01*
G01X21275Y5736D01*
G01X21202Y5736D01*
G01X21147Y5755D01*
G01X21110Y5790D01*
G01X21522Y6117D02*
G01X21722Y6117D01*
G01X21613Y5973D01*
G01X21667Y5973D01*
G01X21703Y5955D01*
G01X21722Y5936D01*
G01X21739Y5882D01*
G01X21739Y5844D01*
G01X21722Y5790D01*
G01X21685Y5755D01*
G01X21631Y5736D01*
G01X21576Y5736D01*
G01X21522Y5755D01*
G01X21503Y5773D01*
G01X21485Y5809D01*
G01X20955Y3063D02*
G01X20918Y3100D01*
G01X20864Y3117D01*
G01X20790Y3117D01*
G01X20735Y3100D01*
G01X20700Y3063D01*
G01X20700Y3026D01*
G01X20718Y2990D01*
G01X20735Y2973D01*
G01X20772Y2955D01*
G01X20881Y2917D01*
G01X20918Y2900D01*
G01X20935Y2882D01*
G01X20955Y2844D01*
G01X20955Y2790D01*
G01X20918Y2755D01*
G01X20864Y2736D01*
G01X20790Y2736D01*
G01X20735Y2755D01*
G01X20700Y2790D01*
G01X21202Y3117D02*
G01X21202Y2736D01*
G01X21075Y3117D02*
G01X21328Y3117D01*
G01X21448Y3117D02*
G01X21448Y2736D01*
G01X21448Y3117D02*
G01X21685Y3117D01*
G01X21448Y2936D02*
G01X21594Y2936D01*
G01X21448Y2736D02*
G01X21685Y2736D01*
G01X21805Y3117D02*
G01X21805Y2736D01*
G01X21805Y3117D02*
G01X21968Y3117D01*
G01X22023Y3100D01*
G01X22042Y3082D01*
G01X22060Y3044D01*
G01X22060Y2990D01*
G01X22042Y2955D01*
G01X22023Y2936D01*
G01X21968Y2917D01*
G01X21805Y2917D01*
G01X20700Y2117D02*
G01X20700Y1736D01*
G01X20700Y2117D02*
G01X20827Y2117D01*
G01X20881Y2100D01*
G01X20918Y2063D01*
G01X20935Y2026D01*
G01X20955Y1973D01*
G01X20955Y1882D01*
G01X20935Y1826D01*
G01X20918Y1790D01*
G01X20881Y1755D01*
G01X20827Y1736D01*
G01X20700Y1736D01*
G01X21075Y2117D02*
G01X21075Y1736D01*
G01X21194Y2117D02*
G01X21194Y1736D01*
G01X21194Y2117D02*
G01X21357Y2117D01*
G01X21413Y2100D01*
G01X21431Y2082D01*
G01X21448Y2044D01*
G01X21448Y2009D01*
G01X21431Y1973D01*
G01X21413Y1955D01*
G01X21357Y1936D01*
G01X21194Y1936D01*
G01X21322Y1936D02*
G01X21448Y1736D01*
G01X24072Y2026D02*
G01X24055Y2063D01*
G01X24018Y2100D01*
G01X23981Y2117D01*
G01X23909Y2117D01*
G01X23872Y2100D01*
G01X23835Y2063D01*
G01X23818Y2026D01*
G01X23800Y1973D01*
G01X23800Y1882D01*
G01X23818Y1826D01*
G01X23835Y1790D01*
G01X23872Y1755D01*
G01X23909Y1736D01*
G01X23981Y1736D01*
G01X24018Y1755D01*
G01X24055Y1790D01*
G01X24072Y1826D01*
G01X24072Y1882D01*
G01X23981Y1882D02*
G01X24072Y1882D01*
G01X24193Y2117D02*
G01X24193Y1736D01*
G01X24193Y2117D02*
G01X24447Y1736D01*
G01X24447Y2117D02*
G01X24447Y1736D01*
G01X24567Y2117D02*
G01X24567Y1736D01*
G01X24567Y2117D02*
G01X24694Y2117D01*
G01X24748Y2100D01*
G01X24785Y2063D01*
G01X24803Y2026D01*
G01X24822Y1973D01*
G01X24822Y1882D01*
G01X24803Y1826D01*
G01X24785Y1790D01*
G01X24748Y1755D01*
G01X24694Y1736D01*
G01X24567Y1736D01*
G01X23800Y3117D02*
G01X23944Y2736D01*
G01X24090Y3117D02*
G01X23944Y2736D01*
G01X24210Y3117D02*
G01X24210Y2736D01*
G01X24210Y3117D02*
G01X24338Y3117D01*
G01X24393Y3100D01*
G01X24428Y3063D01*
G01X24447Y3026D01*
G01X24464Y2973D01*
G01X24464Y2882D01*
G01X24447Y2826D01*
G01X24428Y2790D01*
G01X24393Y2755D01*
G01X24338Y2736D01*
G01X24210Y2736D01*
G01X24585Y3117D02*
G01X24585Y2736D01*
G01X24585Y3117D02*
G01X24713Y3117D01*
G01X24767Y3100D01*
G01X24803Y3063D01*
G01X24822Y3026D01*
G01X24839Y2973D01*
G01X24839Y2882D01*
G01X24822Y2826D01*
G01X24803Y2790D01*
G01X24767Y2755D01*
G01X24713Y2736D01*
G01X24585Y2736D01*
G01X23800Y4044D02*
G01X23835Y4063D01*
G01X23890Y4117D01*
G01X23890Y3736D01*
G01X24010Y4117D02*
G01X24010Y3736D01*
G01X24010Y4117D02*
G01X24175Y4117D01*
G01X24228Y4100D01*
G01X24247Y4082D01*
G01X24264Y4044D01*
G01X24264Y4009D01*
G01X24247Y3973D01*
G01X24228Y3955D01*
G01X24175Y3936D01*
G01X24010Y3936D02*
G01X24175Y3936D01*
G01X24228Y3917D01*
G01X24247Y3900D01*
G01X24264Y3863D01*
G01X24264Y3809D01*
G01X24247Y3773D01*
G01X24228Y3755D01*
G01X24175Y3736D01*
G01X24010Y3736D01*
G01X23800Y5044D02*
G01X23835Y5063D01*
G01X23890Y5117D01*
G01X23890Y4736D01*
G01X24156Y5117D02*
G01X24010Y4736D01*
G01X24156Y5117D02*
G01X24302Y4736D01*
G01X24064Y4863D02*
G01X24247Y4863D01*
G01X23818Y6026D02*
G01X23818Y6044D01*
G01X23835Y6082D01*
G01X23855Y6100D01*
G01X23890Y6117D01*
G01X23964Y6117D01*
G01X24000Y6100D01*
G01X24018Y6082D01*
G01X24035Y6044D01*
G01X24035Y6009D01*
G01X24018Y5973D01*
G01X23981Y5917D01*
G01X23800Y5736D01*
G01X24055Y5736D01*
G01X24319Y6117D02*
G01X24175Y5736D01*
G01X24319Y6117D02*
G01X24464Y5736D01*
G01X24228Y5863D02*
G01X24410Y5863D01*
G01X23818Y7026D02*
G01X23818Y7044D01*
G01X23835Y7082D01*
G01X23855Y7100D01*
G01X23890Y7117D01*
G01X23964Y7117D01*
G01X24000Y7100D01*
G01X24018Y7082D01*
G01X24035Y7044D01*
G01X24035Y7009D01*
G01X24018Y6973D01*
G01X23981Y6917D01*
G01X23800Y6736D01*
G01X24055Y6736D01*
G01X24175Y7117D02*
G01X24175Y6736D01*
G01X24175Y7117D02*
G01X24338Y7117D01*
G01X24393Y7100D01*
G01X24410Y7082D01*
G01X24428Y7044D01*
G01X24428Y7009D01*
G01X24410Y6973D01*
G01X24393Y6955D01*
G01X24338Y6936D01*
G01X24175Y6936D02*
G01X24338Y6936D01*
G01X24393Y6917D01*
G01X24410Y6900D01*
G01X24428Y6863D01*
G01X24428Y6809D01*
G01X24410Y6773D01*
G01X24393Y6755D01*
G01X24338Y6736D01*
G01X24175Y6736D01*
G01X24072Y8026D02*
G01X24055Y8063D01*
G01X24018Y8100D01*
G01X23981Y8117D01*
G01X23909Y8117D01*
G01X23872Y8100D01*
G01X23835Y8063D01*
G01X23818Y8026D01*
G01X23800Y7973D01*
G01X23800Y7882D01*
G01X23818Y7826D01*
G01X23835Y7790D01*
G01X23872Y7755D01*
G01X23909Y7736D01*
G01X23981Y7736D01*
G01X24018Y7755D01*
G01X24055Y7790D01*
G01X24072Y7826D01*
G01X24072Y7882D01*
G01X23981Y7882D02*
G01X24072Y7882D01*
G01X24193Y8117D02*
G01X24193Y7736D01*
G01X24193Y8117D02*
G01X24447Y7736D01*
G01X24447Y8117D02*
G01X24447Y7736D01*
G01X24567Y8117D02*
G01X24567Y7736D01*
G01X24567Y8117D02*
G01X24694Y8117D01*
G01X24748Y8100D01*
G01X24785Y8063D01*
G01X24803Y8026D01*
G01X24822Y7973D01*
G01X24822Y7882D01*
G01X24803Y7826D01*
G01X24785Y7790D01*
G01X24748Y7755D01*
G01X24694Y7736D01*
G01X24567Y7736D01*
G01X23400Y9117D02*
G01X23544Y8736D01*
G01X23690Y9117D02*
G01X23544Y8736D01*
G01X23810Y9117D02*
G01X23810Y8736D01*
G01X23810Y9117D02*
G01X23956Y8736D01*
G01X24102Y9117D02*
G01X23956Y8736D01*
G01X24102Y9117D02*
G01X24102Y8736D01*
G01X24331Y9117D02*
G01X24294Y9100D01*
G01X24257Y9063D01*
G01X24239Y9026D01*
G01X24222Y8973D01*
G01X24222Y8882D01*
G01X24239Y8826D01*
G01X24257Y8790D01*
G01X24294Y8755D01*
G01X24331Y8736D01*
G01X24403Y8736D01*
G01X24439Y8755D01*
G01X24476Y8790D01*
G01X24494Y8826D01*
G01X24513Y8882D01*
G01X24513Y8973D01*
G01X24494Y9026D01*
G01X24476Y9063D01*
G01X24439Y9100D01*
G01X24403Y9117D01*
G01X24331Y9117D01*
G01X24760Y9117D02*
G01X24760Y8736D01*
G01X24632Y9117D02*
G01X24886Y9117D01*
G01X20700Y9117D02*
G01X20700Y8736D01*
G01X20700Y9117D02*
G01X20935Y9117D01*
G01X20700Y8936D02*
G01X20844Y8936D01*
G01X20700Y8736D02*
G01X20935Y8736D01*
G01X21056Y9117D02*
G01X21056Y8736D01*
G01X21056Y9117D02*
G01X21310Y8736D01*
G01X21310Y9117D02*
G01X21310Y8736D01*
G01X20700Y5117D02*
G01X20700Y4736D01*
G01X20700Y5117D02*
G01X20864Y5117D01*
G01X20918Y5100D01*
G01X20935Y5082D01*
G01X20955Y5044D01*
G01X20955Y5009D01*
G01X20935Y4973D01*
G01X20918Y4955D01*
G01X20864Y4936D01*
G01X20700Y4936D01*
G01X20827Y4936D02*
G01X20955Y4736D01*
G01X21328Y5063D02*
G01X21293Y5100D01*
G01X21238Y5117D01*
G01X21164Y5117D01*
G01X21110Y5100D01*
G01X21075Y5063D01*
G01X21075Y5026D01*
G01X21093Y4990D01*
G01X21110Y4973D01*
G01X21147Y4955D01*
G01X21256Y4917D01*
G01X21293Y4900D01*
G01X21310Y4882D01*
G01X21328Y4844D01*
G01X21328Y4790D01*
G01X21293Y4755D01*
G01X21238Y4736D01*
G01X21164Y4736D01*
G01X21110Y4755D01*
G01X21075Y4790D01*
G01X21576Y5117D02*
G01X21576Y4736D01*
G01X21448Y5117D02*
G01X21703Y5117D01*
G01X20955Y4063D02*
G01X20918Y4100D01*
G01X20864Y4117D01*
G01X20790Y4117D01*
G01X20735Y4100D01*
G01X20700Y4063D01*
G01X20700Y4026D01*
G01X20718Y3990D01*
G01X20735Y3973D01*
G01X20772Y3955D01*
G01X20881Y3917D01*
G01X20918Y3900D01*
G01X20935Y3882D01*
G01X20955Y3844D01*
G01X20955Y3790D01*
G01X20918Y3755D01*
G01X20864Y3736D01*
G01X20790Y3736D01*
G01X20735Y3755D01*
G01X20700Y3790D01*
G01X21075Y4117D02*
G01X21075Y3736D01*
G01X21075Y3736D02*
G01X21293Y3736D01*
G01X21413Y4117D02*
G01X21413Y3736D01*
G01X21413Y4117D02*
G01X21576Y4117D01*
G01X21631Y4100D01*
G01X21648Y4082D01*
G01X21667Y4044D01*
G01X21667Y3990D01*
G01X21648Y3955D01*
G01X21631Y3936D01*
G01X21576Y3917D01*
G01X21413Y3917D01*
G01X13300Y13400D02*
G01X13514Y12836D01*
G01X13728Y13400D02*
G01X13514Y12836D01*
G01X14309Y13265D02*
G01X14281Y13319D01*
G01X14228Y13373D01*
G01X14175Y13400D01*
G01X14068Y13400D01*
G01X14014Y13373D01*
G01X13960Y13319D01*
G01X13932Y13265D01*
G01X13906Y13184D01*
G01X13906Y13051D01*
G01X13932Y12971D01*
G01X13960Y12917D01*
G01X14014Y12863D01*
G01X14068Y12836D01*
G01X14175Y12836D01*
G01X14228Y12863D01*
G01X14281Y12917D01*
G01X14309Y12971D01*
G01X14889Y13265D02*
G01X14861Y13319D01*
G01X14809Y13373D01*
G01X14755Y13400D01*
G01X14647Y13400D01*
G01X14593Y13373D01*
G01X14539Y13319D01*
G01X14513Y13265D01*
G01X14485Y13184D01*
G01X14485Y13051D01*
G01X14513Y12971D01*
G01X14539Y12917D01*
G01X14593Y12863D01*
G01X14647Y12836D01*
G01X14755Y12836D01*
G01X14809Y12863D01*
G01X14861Y12917D01*
G01X14889Y12971D01*
G01X15077Y7478D02*
G01X15642Y7478D01*
G01X15077Y7478D02*
G01X15642Y7692D01*
G01X15077Y7907D02*
G01X15642Y7692D01*
G01X15077Y7907D02*
G01X15642Y7907D01*
G01X15077Y8084D02*
G01X15642Y8084D01*
G01X15077Y8084D02*
G01X15077Y8326D01*
G01X15105Y8407D01*
G01X15131Y8434D01*
G01X15185Y8459D01*
G01X15265Y8459D01*
G01X15318Y8434D01*
G01X15346Y8407D01*
G01X15372Y8326D01*
G01X15372Y8084D01*
G01X15077Y8638D02*
G01X15481Y8638D01*
G01X15560Y8663D01*
G01X15614Y8717D01*
G01X15642Y8798D01*
G01X15642Y8851D01*
G01X15614Y8932D01*
G01X15560Y8986D01*
G01X15481Y9013D01*
G01X15077Y9013D01*
G01X15400Y9190D02*
G01X15400Y9673D01*
G01X15157Y10173D02*
G01X15105Y10146D01*
G01X15077Y10065D01*
G01X15077Y10011D01*
G01X15105Y9930D01*
G01X15185Y9878D01*
G01X15318Y9851D01*
G01X15453Y9851D01*
G01X15560Y9878D01*
G01X15614Y9930D01*
G01X15642Y10011D01*
G01X15642Y10038D01*
G01X15614Y10119D01*
G01X15560Y10173D01*
G01X15481Y10200D01*
G01X15453Y10200D01*
G01X15372Y10173D01*
G01X15318Y10119D01*
G01X15293Y10038D01*
G01X15293Y10011D01*
G01X15318Y9930D01*
G01X15372Y9878D01*
G01X15453Y9851D01*
G01X15077Y10538D02*
G01X15105Y10457D01*
G01X15185Y10403D01*
G01X15318Y10376D01*
G01X15400Y10376D01*
G01X15534Y10403D01*
G01X15614Y10457D01*
G01X15642Y10538D01*
G01X15642Y10592D01*
G01X15614Y10671D01*
G01X15534Y10726D01*
G01X15400Y10753D01*
G01X15318Y10753D01*
G01X15185Y10726D01*
G01X15105Y10671D01*
G01X15077Y10592D01*
G01X15077Y10538D01*
G01X15077Y11251D02*
G01X15077Y10984D01*
G01X15318Y10957D01*
G01X15293Y10984D01*
G01X15265Y11063D01*
G01X15265Y11144D01*
G01X15293Y11225D01*
G01X15346Y11278D01*
G01X15427Y11305D01*
G01X15481Y11305D01*
G01X15560Y11278D01*
G01X15614Y11225D01*
G01X15642Y11144D01*
G01X15642Y11063D01*
G01X15614Y10984D01*
G01X15588Y10957D01*
G01X15534Y10930D01*
G01X15077Y11644D02*
G01X15105Y11563D01*
G01X15185Y11509D01*
G01X15318Y11482D01*
G01X15400Y11482D01*
G01X15534Y11509D01*
G01X15614Y11563D01*
G01X15642Y11644D01*
G01X15642Y11698D01*
G01X15614Y11778D01*
G01X15534Y11832D01*
G01X15400Y11859D01*
G01X15318Y11859D01*
G01X15185Y11832D01*
G01X15105Y11778D01*
G01X15077Y11698D01*
G01X15077Y11644D01*
G54D14*
G01X9126Y15346D02*
G01X9344Y15346D01*
G01X9384Y15332D01*
G01X9398Y15319D01*
G01X9413Y15292D01*
G01X9413Y15265D01*
G01X9398Y15236D01*
G01X9384Y15223D01*
G01X9344Y15209D01*
G01X9317Y15209D01*
G01X9180Y15436D02*
G01X9167Y15463D01*
G01X9126Y15505D01*
G01X9413Y15505D01*
G01X9194Y15607D02*
G01X9180Y15607D01*
G01X9153Y15621D01*
G01X9140Y15634D01*
G01X9126Y15663D01*
G01X9126Y15717D01*
G01X9140Y15744D01*
G01X9153Y15757D01*
G01X9180Y15771D01*
G01X9207Y15771D01*
G01X9234Y15757D01*
G01X9276Y15730D01*
G01X9413Y15594D01*
G01X9413Y15784D01*
G01X9126Y16236D02*
G01X9344Y16236D01*
G01X9384Y16223D01*
G01X9398Y16209D01*
G01X9413Y16182D01*
G01X9413Y16155D01*
G01X9398Y16126D01*
G01X9384Y16113D01*
G01X9344Y16100D01*
G01X9317Y16100D01*
G01X9194Y16340D02*
G01X9180Y16340D01*
G01X9153Y16353D01*
G01X9140Y16367D01*
G01X9126Y16394D01*
G01X9126Y16448D01*
G01X9140Y16476D01*
G01X9153Y16490D01*
G01X9180Y16503D01*
G01X9207Y16503D01*
G01X9234Y16490D01*
G01X9276Y16463D01*
G01X9413Y16326D01*
G01X9413Y16517D01*
G01X9126Y16634D02*
G01X9126Y16784D01*
G01X9234Y16703D01*
G01X9234Y16744D01*
G01X9248Y16771D01*
G01X9263Y16784D01*
G01X9303Y16798D01*
G01X9330Y16798D01*
G01X9371Y16784D01*
G01X9398Y16757D01*
G01X9413Y16715D01*
G01X9413Y16675D01*
G01X9398Y16634D01*
G01X9384Y16621D01*
G01X9357Y16607D01*
G54D10*
G75*
G01X12610Y16284D02*
G03X12627Y16284I8J-985D01*
G01*
G75*
G01X22085Y16206D02*
G02X22006Y16324I19J98D01*
G01*
G75*
G01X22793Y16324D02*
G02X22714Y16206I-98J-20D01*
G01*
G75*
G01X22793Y16875D02*
G03X22714Y16993I-98J20D01*
G01*
G75*
G01X22085Y16993D02*
G03X22006Y16875I19J-98D01*
G01*
G75*
G01X22085Y15206D02*
G02X22006Y15324I19J98D01*
G01*
G75*
G01X22793Y15324D02*
G02X22714Y15206I-98J-20D01*
G01*
G75*
G01X22793Y15875D02*
G03X22714Y15993I-98J20D01*
G01*
G75*
G01X22085Y15993D02*
G03X22006Y15875I19J-98D01*
G01*
G75*
G01X22085Y14206D02*
G02X22006Y14324I19J98D01*
G01*
G75*
G01X22793Y14324D02*
G02X22714Y14206I-98J-20D01*
G01*
G75*
G01X22793Y14875D02*
G03X22714Y14993I-98J20D01*
G01*
G75*
G01X22085Y14993D02*
G03X22006Y14875I19J-98D01*
G01*
G75*
G01X22085Y7606D02*
G02X22006Y7724I19J98D01*
G01*
G75*
G01X22793Y7724D02*
G02X22714Y7606I-98J-20D01*
G01*
G75*
G01X22793Y8275D02*
G03X22714Y8393I-98J20D01*
G01*
G75*
G01X22085Y8393D02*
G03X22006Y8275I19J-98D01*
G01*
G75*
G01X22085Y6606D02*
G02X22006Y6724I19J98D01*
G01*
G75*
G01X22793Y6724D02*
G02X22714Y6606I-98J-20D01*
G01*
G75*
G01X22793Y7275D02*
G03X22714Y7393I-98J20D01*
G01*
G75*
G01X22085Y7393D02*
G03X22006Y7275I19J-98D01*
G01*
G75*
G01X22085Y5606D02*
G02X22006Y5724I19J98D01*
G01*
G75*
G01X22793Y5724D02*
G02X22714Y5606I-98J-20D01*
G01*
G75*
G01X22793Y6275D02*
G03X22714Y6393I-98J20D01*
G01*
G75*
G01X22085Y6393D02*
G03X22006Y6275I19J-98D01*
G01*
G75*
G01X17550Y17150D02*
G02X17550Y15650I699J-750D01*
G01*
G75*
G01X8100Y2700D02*
G03X8100Y2700I-2300J0D01*
G01*
G36*
G01X13339Y15959D02*
G01X13339Y14719D01*
G01X13369Y14690D01*
G01X13469Y14790D01*
G01X13469Y14909D01*
G01X13579Y15019D01*
G01X13579Y15285D01*
G01X13593Y15300D01*
G01X13569Y15324D01*
G01X13569Y15519D01*
G01X13559Y15530D01*
G01X13339Y15959D01*
G37*

M00*
M02*